<svg xmlns="http://www.w3.org/2000/svg" width="20.764" height="17.649" viewBox="0 0 20.764 17.649">
  <path id="Path_21" data-name="Path 21" d="M21.725,10.767H20.687V9.729a1.038,1.038,0,1,0-2.076,0v1.038H17.573a1.038,1.038,0,0,0,0,2.076h1.038v1.038a1.038,1.038,0,1,0,2.076,0V12.844h1.038a1.038,1.038,0,1,0,0-2.076Zm-7.994,1.786A5.108,5.108,0,0,0,15.5,8.691a5.191,5.191,0,1,0-10.382,0A5.108,5.108,0,0,0,6.88,12.553,8.305,8.305,0,0,0,2,20.111a1.038,1.038,0,0,0,2.076,0,6.229,6.229,0,0,1,12.458,0,1.038,1.038,0,0,0,2.076,0,8.305,8.305,0,0,0-4.879-7.558Zm-3.426-.747A3.115,3.115,0,1,1,13.42,8.691,3.115,3.115,0,0,1,10.305,11.805Z" transform="translate(-2 -3.5)"/>
</svg>
