<svg xmlns="http://www.w3.org/2000/svg" width="35.802" height="34.097" viewBox="0 0 35.802 34.097">
  <g id="Page-1" transform="translate(0 0)">
    <g id="Dribbble-Light-Preview" transform="translate(0 0)">
      <g id="icons">
        <path id="menu_navigation_grid-_1529_" data-name="menu_navigation_grid-[#1529]" d="M73.431,58.753h-5.37a5.247,5.247,0,0,0-5.37,5.115v5.115a5.247,5.247,0,0,0,5.37,5.115h5.37a5.247,5.247,0,0,0,5.37-5.115V63.868a5.247,5.247,0,0,0-5.37-5.115m-19.691,0H48.37A5.247,5.247,0,0,0,43,63.868v5.115A5.247,5.247,0,0,0,48.37,74.1h5.37a5.247,5.247,0,0,0,5.37-5.115V63.868a5.247,5.247,0,0,0-5.37-5.115M73.431,40h-5.37a5.247,5.247,0,0,0-5.37,5.115v5.115a5.247,5.247,0,0,0,5.37,5.115h5.37a5.247,5.247,0,0,0,5.37-5.115V45.115A5.247,5.247,0,0,0,73.431,40M59.111,45.115v5.115a5.247,5.247,0,0,1-5.37,5.115H48.37A5.247,5.247,0,0,1,43,50.229V45.115A5.247,5.247,0,0,1,48.37,40h5.37a5.247,5.247,0,0,1,5.37,5.115" transform="translate(-43 -40)" fill="#403e8c" fill-rule="evenodd"/>
      </g>
    </g>
  </g>
</svg>
