<svg xmlns="http://www.w3.org/2000/svg" width="57" height="57" viewBox="0 0 57 57">
  <g id="Group_16086" data-name="Group 16086" transform="translate(-1814 -40)">
    <g id="noun_profile_1122797" transform="translate(1829 51.772)">
      <g id="Group_15941" data-name="Group 15941">
        <path id="Path_10774" data-name="Path 10774" d="M35.563,20.626A8.063,8.063,0,1,0,27.5,12.563,8.075,8.075,0,0,0,35.563,20.626Zm0-13.259a5.2,5.2,0,1,1-5.2,5.2A5.2,5.2,0,0,1,35.563,7.367Z" transform="translate(-21.941 -4.5)" fill="#3f3e8d"/>
        <path id="Path_10775" data-name="Path 10775" d="M39.119,58.34a8.492,8.492,0,0,0-.717-1.648,10.611,10.611,0,0,0-1.254-1.863,8.766,8.766,0,0,0-9.568-2.652,6.293,6.293,0,0,1-3.978,0,8.766,8.766,0,0,0-9.568,2.652,11.3,11.3,0,0,0-1.254,1.863,10.939,10.939,0,0,0-.717,1.648,1.424,1.424,0,0,0,.108,1.147,10.792,10.792,0,0,0,.968,1.505,14.591,14.591,0,0,0,3.834,3.727,15.338,15.338,0,0,0,2.365,1.326,15.324,15.324,0,0,0,12.471,0,15.338,15.338,0,0,0,2.365-1.326,15.156,15.156,0,0,0,3.834-3.727,17.706,17.706,0,0,0,.968-1.505A1.433,1.433,0,0,0,39.119,58.34Zm-3.4,1A12.591,12.591,0,0,1,32.6,62.389a10.232,10.232,0,0,1-1.935,1.075,12.411,12.411,0,0,1-10.105,0,10.232,10.232,0,0,1-1.935-1.075A12.591,12.591,0,0,1,15.5,59.343c-.143-.215-.323-.43-.466-.681.108-.215.179-.43.287-.645a7.3,7.3,0,0,1,.932-1.4,5.9,5.9,0,0,1,6.45-1.72,9.222,9.222,0,0,0,5.734,0,5.9,5.9,0,0,1,6.45,1.72,9.48,9.48,0,0,1,.932,1.4h0a5.076,5.076,0,0,1,.287.645A3.334,3.334,0,0,1,35.715,59.343Z" transform="translate(-11.987 -34.796)" fill="#3f3e8d"/>
      </g>
    </g>
    <g id="Ellipse_67" data-name="Ellipse 67" transform="translate(1814 40)" fill="none" stroke="#4e3883" stroke-width="3">
      <circle cx="28.5" cy="28.5" r="28.5" stroke="none"/>
      <circle cx="28.5" cy="28.5" r="27" fill="none"/>
    </g>
  </g>
</svg>
