<svg xmlns="http://www.w3.org/2000/svg" width="304.981" height="711.977" viewBox="0 0 304.981 711.977">
  <g id="Group_15887" data-name="Group 15887" transform="translate(-807.509 -196)">
    <g id="_13037616451618587877" data-name="13037616451618587877" transform="translate(1112.491 620.669) rotate(90)">
      <path id="Path_10382" data-name="Path 10382" d="M0,0H287.308V304.981H0Z" fill="none"/>
      <path id="Path_10383" data-name="Path 10383" d="M2,4H25.648V207.321H2ZM49.3,4H72.943V207.321H49.3ZM84.767,4h35.472V207.321H84.767Zm47.3,0h23.648V207.321H132.063Zm35.472,0h23.648V207.321H167.534Zm35.472,0h35.472V207.321H203.006Z" transform="translate(23.415 46.83)" fill="#3f3e8d"/>
    </g>
    <g id="_13037616451618587877-2" data-name="13037616451618587877" transform="translate(1112.491 196) rotate(90)">
      <path id="Path_10382-2" data-name="Path 10382" d="M0,0H236.65V304.981H0Z" fill="none"/>
      <path id="Path_10383-2" data-name="Path 10383" d="M2,4H20.582V207.321H2ZM39.164,4H57.746V207.321H39.164ZM67.037,4H94.91V207.321H67.037ZM104.2,4h18.582V207.321H104.2Zm27.873,0h18.582V207.321H132.074Zm27.873,0H187.82V207.321H159.947Z" transform="translate(23.415 46.83)" fill="#3f3e8d"/>
    </g>
  </g>
</svg>
