<svg xmlns="http://www.w3.org/2000/svg" width="99.401" height="99.398" viewBox="0 0 99.401 99.398">
  <g id="Group_16111" data-name="Group 16111" transform="translate(-680.735 -634.113)">
    <path id="Path_25" data-name="Path 25" d="M88.719,118.816l3.9-3.9,8.935-8.934,9.827-9.827,6.572-6.572a12.09,12.09,0,0,0,2.211-2.657A8.915,8.915,0,0,0,118.646,76.3l-4.259-4.259L105.837,63.5l-10.02-10.02-8.782-8.782L82.32,39.977l-.213-.213a4.131,4.131,0,0,0-5.74,0c-.1.1-.213.193-.325.294l.821-.639a4.2,4.2,0,0,1-.852.507c.325-.132.649-.274.974-.406a4.351,4.351,0,0,1-1.065.284c.355-.051.72-.1,1.075-.142a5.1,5.1,0,0,1-.963,0c.355.051.72.1,1.075.142a4.31,4.31,0,0,1-1.075-.284c.325.132.649.274.974.406a4.821,4.821,0,0,1-.862-.487l.821.639a4.516,4.516,0,0,1-.74-.72l.639.821a4.207,4.207,0,0,1-.517-.872c.132.325.274.649.406.974a4.409,4.409,0,0,1-.254-.953c.051.355.1.72.142,1.075a3.909,3.909,0,0,1,0-.974c-.051.355-.1.72-.142,1.075a4.409,4.409,0,0,1,.254-.953c-.132.325-.274.649-.406.974a4.54,4.54,0,0,1,.5-.892l-.639.821A4.258,4.258,0,0,1,76.6,40a4.131,4.131,0,0,0,0-5.74L71,28.66q-1.7-1.689-3.387-3.377a10.185,10.185,0,0,0-4.878-3.1,8.978,8.978,0,0,0-8.377,2.383l-1.105,1.105L48.022,30.9l-7.565,7.565-7.86,7.86L26.583,52.34a21.463,21.463,0,0,0-3.519,3.915,8.87,8.87,0,0,0,1.389,10.669c.74.75,1.481,1.481,2.231,2.231l6.957,6.957.477.477a4.131,4.131,0,0,0,5.74,0c.112-.1.213-.2.335-.294l-.821.639a4.093,4.093,0,0,1,.862-.507c-.325.132-.649.274-.974.406a4.814,4.814,0,0,1,1.075-.294c-.355.051-.72.1-1.075.142a5.1,5.1,0,0,1,.963,0c-.355-.051-.72-.1-1.075-.142a4.328,4.328,0,0,1,1.075.294c-.325-.132-.649-.274-.974-.406a4.544,4.544,0,0,1,.852.517L39.28,76.3a4.6,4.6,0,0,1,.629.629l-.639-.821a4.9,4.9,0,0,1,.517.852c-.132-.325-.274-.649-.406-.974a4.328,4.328,0,0,1,.294,1.075c-.051-.355-.1-.72-.142-1.075a3.829,3.829,0,0,1,0,.963c.051-.355.1-.72.142-1.075a4.328,4.328,0,0,1-.294,1.075c.132-.325.274-.649.406-.974a4.925,4.925,0,0,1-.507.862l.639-.821c-.091.112-.193.223-.294.335a4.131,4.131,0,0,0,0,5.74l4.188,4.188L53.64,96.11l11.348,11.348,8.823,8.823,2.2,2.2.325.325A8.933,8.933,0,0,0,84.7,121.1a8.8,8.8,0,0,0,4.016-2.282,4.092,4.092,0,0,0,0-5.74,4.14,4.14,0,0,0-5.74,0,5.629,5.629,0,0,1-.446.4l.821-.639a4.68,4.68,0,0,1-1.116.639c.325-.132.649-.274.974-.406a5.832,5.832,0,0,1-1.075.294c.355-.051.72-.1,1.075-.142a5.234,5.234,0,0,1-1.379,0c.355.051.72.1,1.075.142a4.814,4.814,0,0,1-1.075-.294c.325.132.649.274.974.406a6.1,6.1,0,0,1-1.116-.639l.821.639a17.8,17.8,0,0,1-1.339-1.288l-2.627-2.627-8.742-8.742L59.157,90.167,49.9,80.908c-1.491-1.491-2.961-3.022-4.493-4.493l-.061-.061v5.74a8.2,8.2,0,0,0,2.312-5.618,8.008,8.008,0,0,0-2.333-5.608,7.944,7.944,0,0,0-11.226-.02h5.74l-8.64-8.64a18.707,18.707,0,0,1-1.46-1.511l.639.821a4.681,4.681,0,0,1-.639-1.116c.132.325.274.649.406.974a5.833,5.833,0,0,1-.294-1.075c.051.355.1.72.142,1.075a5.234,5.234,0,0,1,0-1.379c-.051.355-.1.72-.142,1.075A4.814,4.814,0,0,1,30.143,60c-.132.325-.274.649-.406.974a6.1,6.1,0,0,1,.639-1.116l-.639.821c.335-.416.73-.781,1.105-1.166L33,57.35l7.231-7.231L49,41.357l7.545-7.545c1.187-1.187,2.373-2.393,3.57-3.57a4.665,4.665,0,0,1,.477-.416l-.821.639a4.681,4.681,0,0,1,1.116-.639c-.325.132-.649.274-.974.406a5.833,5.833,0,0,1,1.075-.294c-.355.051-.72.1-1.075.142a5.233,5.233,0,0,1,1.379,0c-.355-.051-.72-.1-1.075-.142a4.815,4.815,0,0,1,1.075.294c-.325-.132-.649-.274-.974-.406a6.1,6.1,0,0,1,1.116.639l-.821-.639c.456.365.862.811,1.288,1.227l2.333,2.333,5.355,5.355L70.84,40v-5.74a8.175,8.175,0,0,0-2.363,5.659,7.779,7.779,0,0,0,2.4,5.618A8.32,8.32,0,0,0,76.428,47.8,8.019,8.019,0,0,0,82.086,45.5h-5.74l3.7,3.7,8.8,8.8L99.489,68.647l9.137,9.137c1.44,1.44,2.89,2.87,4.32,4.32a6.233,6.233,0,0,1,.426.477l-.639-.821a4.681,4.681,0,0,1,.639,1.116c-.132-.325-.274-.649-.406-.974a5.834,5.834,0,0,1,.294,1.075c-.051-.355-.1-.72-.142-1.075a5.233,5.233,0,0,1,0,1.379c.051-.355.1-.72.142-1.075a4.816,4.816,0,0,1-.294,1.075c.132-.325.274-.649.406-.974a6.1,6.1,0,0,1-.639,1.116l.639-.821a42.99,42.99,0,0,1-3.235,3.286L103,93.027l-8.722,8.722L86.7,109.324c-1.227,1.227-2.485,2.444-3.7,3.7l-.051.051a4.111,4.111,0,0,0,0,5.74A4.178,4.178,0,0,0,88.719,118.816Z" transform="translate(658.86 612.161)" fill="#2639a6"/>
    <path id="Path_26" data-name="Path 26" d="M389.708,406.488l7.4,7.4,11.815,11.815,2.718,2.718a4.059,4.059,0,1,0,5.74-5.74l-7.4-7.4q-5.917-5.9-11.825-11.815l-2.718-2.718a4.055,4.055,0,1,0-5.73,5.74Zm31.347-2.5c-1.623-1.633-3.255-3.255-4.878-4.888l-7.748-7.748-1.8-1.8a4.059,4.059,0,1,0-5.74,5.74l4.888,4.888,7.748,7.748,1.795,1.795a4.055,4.055,0,1,0,5.73-5.74Z" transform="translate(329.373 282.89)" fill="#2639a6"/>
    <g id="Group_12" data-name="Group 12" transform="translate(706.14 659.528)">
      <path id="Path_27" data-name="Path 27" d="M279.292,292.967l4.574-4.574,7.251-7.251,1.684-1.683a4.059,4.059,0,0,0-5.74-5.74l-4.574,4.574-7.251,7.251-1.684,1.683a4.059,4.059,0,0,0,5.74,5.74Z" transform="translate(-272.384 -272.559)" fill="#2639a6"/>
    </g>
  </g>
</svg>
