<svg xmlns="http://www.w3.org/2000/svg" width="504.228" height="442.787" viewBox="0 0 504.228 442.787">
  <g id="Website_Under_Construction" data-name="Website Under Construction" transform="translate(0 0)">
    <path id="Path_10981" data-name="Path 10981" d="M221.394,0C343.666,0,442.788,99.121,442.788,221.394S343.666,442.787,221.394,442.787,0,343.666,0,221.394,99.121,0,221.394,0Z" transform="translate(51.962 0)" fill="#403e8c"/>
    <path id="Path_10871" data-name="Path 10871" d="M539.342,351.323a152.194,152.194,0,1,1-152.192,152.2A152.2,152.2,0,0,1,539.342,351.323Z" transform="translate(-265.987 -282.123)" fill="#302d8f" fill-rule="evenodd"/>
    <g id="Group_15878" data-name="Group 15878" transform="translate(282.535 91.923)">
      <line id="Line_25" data-name="Line 25" x2="18.581" transform="translate(13.886)" fill="none" stroke="#250c03" stroke-linecap="round" stroke-linejoin="round" stroke-miterlimit="22.926" stroke-width="2.835"/>
      <line id="Line_26" data-name="Line 26" x1="4.725" fill="none" stroke="#250c03" stroke-linecap="round" stroke-linejoin="round" stroke-miterlimit="22.926" stroke-width="2.835"/>
    </g>
    <g id="Group_15879" data-name="Group 15879" transform="translate(202.958 46.64)">
      <line id="Line_27" data-name="Line 27" x2="45.073" transform="translate(13.886)" fill="none" stroke="#250c03" stroke-linecap="round" stroke-linejoin="round" stroke-miterlimit="22.926" stroke-width="2.835"/>
      <line id="Line_28" data-name="Line 28" x1="4.725" fill="none" stroke="#250c03" stroke-linecap="round" stroke-linejoin="round" stroke-miterlimit="22.926" stroke-width="2.835"/>
    </g>
    <path id="Path_10872" data-name="Path 10872" d="M205.364,776.865a5.93,5.93,0,1,1-5.93,5.93A5.93,5.93,0,0,1,205.364,776.865Z" transform="translate(-157.006 -529.178)" fill="none" stroke="#250c03" stroke-linecap="round" stroke-linejoin="round" stroke-miterlimit="22.926" stroke-width="2.835" fill-rule="evenodd"/>
    <path id="Path_10873" data-name="Path 10873" d="M360.456,284.94a5.931,5.931,0,1,1-5.93,5.93A5.929,5.929,0,0,1,360.456,284.94Z" transform="translate(-247.046 -243.584)" fill="none" stroke="#250c03" stroke-linecap="round" stroke-linejoin="round" stroke-miterlimit="22.926" stroke-width="2.835" fill-rule="evenodd"/>
    <path id="Path_10874" data-name="Path 10874" d="M1074.192,390.071a5.931,5.931,0,1,1-5.93,5.93A5.929,5.929,0,0,1,1074.192,390.071Z" transform="translate(-661.416 -304.619)" fill="none" stroke="#250c03" stroke-linecap="round" stroke-linejoin="round" stroke-miterlimit="22.926" stroke-width="2.835" fill-rule="evenodd"/>
    <ellipse id="Ellipse_8" data-name="Ellipse 8" cx="6.524" cy="6.524" rx="6.524" ry="6.524" transform="translate(82.572 150.278)" fill="none" stroke="#250c03" stroke-linecap="round" stroke-linejoin="round" stroke-miterlimit="22.926" stroke-width="2.835"/>
    <g id="Group_15880" data-name="Group 15880" transform="translate(52.425 98.586)">
      <line id="Line_29" data-name="Line 29" y2="19.174" transform="translate(9.587)" fill="none" stroke="#250c03" stroke-linecap="round" stroke-linejoin="round" stroke-miterlimit="22.926" stroke-width="2.835"/>
      <line id="Line_30" data-name="Line 30" x1="19.175" transform="translate(0 9.586)" fill="none" stroke="#250c03" stroke-linecap="round" stroke-linejoin="round" stroke-miterlimit="22.926" stroke-width="2.835"/>
    </g>
    <g id="Group_15881" data-name="Group 15881" transform="translate(349.172 39.64)">
      <line id="Line_31" data-name="Line 31" y2="19.176" transform="translate(9.587)" fill="none" stroke="#250c03" stroke-linecap="round" stroke-linejoin="round" stroke-miterlimit="22.926" stroke-width="2.835"/>
      <line id="Line_32" data-name="Line 32" x1="19.175" transform="translate(0 9.588)" fill="none" stroke="#250c03" stroke-linecap="round" stroke-linejoin="round" stroke-miterlimit="22.926" stroke-width="2.835"/>
    </g>
    <g id="Group_15882" data-name="Group 15882" transform="translate(457.396 137.898)">
      <line id="Line_33" data-name="Line 33" x1="13.56" y2="13.557" fill="none" stroke="#250c03" stroke-linecap="round" stroke-linejoin="round" stroke-miterlimit="22.926" stroke-width="2.835"/>
      <line id="Line_34" data-name="Line 34" x1="13.56" y1="13.56" fill="none" stroke="#250c03" stroke-linecap="round" stroke-linejoin="round" stroke-miterlimit="22.926" stroke-width="2.835"/>
    </g>
    <g id="Group_15883" data-name="Group 15883" transform="translate(164.804 72.63)">
      <line id="Line_35" data-name="Line 35" y2="19.176" transform="translate(9.586)" fill="none" stroke="#250c03" stroke-linecap="round" stroke-linejoin="round" stroke-miterlimit="22.926" stroke-width="2.835"/>
      <line id="Line_36" data-name="Line 36" x1="19.176" transform="translate(0 9.588)" fill="none" stroke="#250c03" stroke-linecap="round" stroke-linejoin="round" stroke-miterlimit="22.926" stroke-width="2.835"/>
    </g>
    <path id="Path_10875" data-name="Path 10875" d="M1127.4,927.834a5.93,5.93,0,1,1-5.93,5.931A5.93,5.93,0,0,1,1127.4,927.834Z" transform="translate(-692.308 -616.825)" fill="none" stroke="#250c03" stroke-linecap="round" stroke-linejoin="round" stroke-miterlimit="22.926" stroke-width="2.835" fill-rule="evenodd"/>
    <g id="Group_15884" data-name="Group 15884" transform="translate(382.786 339.042)">
      <line id="Line_37" data-name="Line 37" x1="18.581" fill="none" stroke="#250c03" stroke-linecap="round" stroke-linejoin="round" stroke-miterlimit="22.926" stroke-width="2.835"/>
      <line id="Line_38" data-name="Line 38" x2="4.727" transform="translate(27.741)" fill="none" stroke="#250c03" stroke-linecap="round" stroke-linejoin="round" stroke-miterlimit="22.926" stroke-width="2.835"/>
    </g>
    <path id="Path_10876" data-name="Path 10876" d="M1208.051,696.852a5.931,5.931,0,1,1-5.93,5.932A5.929,5.929,0,0,1,1208.051,696.852Z" transform="translate(-739.13 -482.725)" fill="none" stroke="#250c03" stroke-linecap="round" stroke-linejoin="round" stroke-miterlimit="22.926" stroke-width="2.835" fill-rule="evenodd"/>
    <g id="Group_15886" data-name="Group 15886" transform="translate(38.103 152.481)">
      <path id="Path_10877" data-name="Path 10877" d="M189.395,742.819a14.008,14.008,0,0,1,1.084-4.73,6.435,6.435,0,0,1,3.148-2.994,6.65,6.65,0,0,1,4.047-.367q1.279-.19,2.563-.3c.112-.484.253-.962.364-1.417.381-1.543.845-3.06,1.289-4.582.815-2.77,1.63-5.536,2.466-8.3q2.574-8.49,5.206-16.961c.073-.232.145-.468.219-.7a1.792,1.792,0,0,1,.432-1.394q4.865-15.692,9.767-31.37,10.5-33.552,21.024-67.1c3.723-11.806,7.3-23.714,11.58-35.279.065-.271.135-.542.211-.807a35.834,35.834,0,0,1,2.338-6.134,18.992,18.992,0,0,1,8.109-8.764c7.147-3.595,15.571-1.563,20.372,5.57a19.914,19.914,0,0,1,2.912,6.793l.013.026c.585,1.411,1.057,2.881,1.548,4.336.986,2.91,1.9,5.852,2.849,8.781,1.851,5.711,3.6,11.471,5.357,17.217Q301.6,611.682,307,628.99q10.73,34.412,21.81,68.684,3.1,9.583,6.206,19.167c1.822,5.635,3.8,11.257,5.334,17.014a36.928,36.928,0,0,1,4.123.55c.086-.015.173-.029.259-.041a10.493,10.493,0,0,1,5.077.606,10.272,10.272,0,0,1,6.178,7.589c.718,3.17.945,7.834-1.173,10.4a6.187,6.187,0,0,1-4.462,2.136,8.129,8.129,0,0,1-2.681-.314,8.357,8.357,0,0,1-1.249-.432q-.635.038-1.27.08c-2.64.177-5.281.311-7.922.433-5.151.24-10.3.35-15.454.379-10.434.069-20.867.059-31.3.059h-62.21c-5.8,0-11.593,0-17.388-.106-2.967-.055-5.928-.13-8.889-.339-2.432-.175-4.879-.261-7.3-.57a3.088,3.088,0,0,1-1.463.038,4.575,4.575,0,0,1-2.961-2.211C188.727,749.618,189.079,745.663,189.395,742.819Z" transform="translate(-189.12 -549.878)" fill="#250c03" fill-rule="evenodd"/>
      <path id="Path_10878" data-name="Path 10878" d="M214.242,1010.962h0c5.151-.111,10.3-.148,15.457-.148H261c20.736,0,41.474-.1,62.21.031,5.8.038,11.6.044,17.388.316q4.447.205,8.889.463.7.041,1.4.078l.044-.038c1.135-.862,2.866-.042,4.165-.051a2.693,2.693,0,0,0,2.367-1.075,6.639,6.639,0,0,0,.453-3.219,13.093,13.093,0,0,0-.463-3.531,5.884,5.884,0,0,0-4.256-4.256,22.568,22.568,0,0,0-3.534-.411,9.224,9.224,0,0,0-1.236-.046c-.92.136-1.846.236-2.778.311a1.675,1.675,0,0,1-2.31.131c-2,.076-4,.065-5.959.065l-14.713,0c-9.746,0-19.492.052-29.235-.015q-29.332-.2-58.662-.324-8.131-.032-16.263-.118c-3.816-.038-7.688.076-11.523-.175a1.224,1.224,0,0,1-.287.427c-.911.877-1.687.645-2.782.485a6.6,6.6,0,0,0-2.649.065,3.309,3.309,0,0,0-1.64.76,4.417,4.417,0,0,0-.887,2.4,23.22,23.22,0,0,0-.426,6.352,3.606,3.606,0,0,0,.737,2.089,1.311,1.311,0,0,0,.566.358c2.224-.306,4.462-.394,6.7-.552Q210.281,1011.049,214.242,1010.962Z" transform="translate(-194.415 -810.592)" fill="#f27405" fill-rule="evenodd"/>
      <path id="Path_10879" data-name="Path 10879" d="M253.129,678.5a1.1,1.1,0,0,1,.253-.655,9.831,9.831,0,0,1,2.957-1.981c1.074-.578,2.146-1.154,3.215-1.743,2.138-1.172,4.275-2.351,6.379-3.6q6.387-3.79,12.635-7.869c8.276-5.4,16.35-11.192,24.25-17.271,4.13-3.176,8.314-6.309,12.365-9.609q-.7-2.274-1.4-4.545-2.96-9.643-5.818-19.323c-.885-2.988-1.725-5.993-2.569-9-.478.47-.962.925-1.425,1.382-1.306,1.293-2.626,2.565-3.985,3.786q-3.974,3.576-8.116,6.888a203.128,203.128,0,0,1-17.5,12.485q-2.578,1.639-5.2,3.182c-.986.581-2.049,1.356-3.146,1.916q-4.953,16.022-9.946,32.03l-4.559,14.639,1.6-.716Zm74.774-1.806q3.671,11.68,7.372,23.343,2.581,8.121,5.185,16.232c-1.973,1.463-3.885,3.042-5.833,4.542-2.8,2.157-5.606,4.313-8.444,6.41q-15.114,11.182-31.122,20.738-8.068,4.821-16.335,9.192-4.056,2.138-8.158,4.163c-2.359,1.167-4.835,2.167-7.164,3.428q-8.475.038-16.952.069c-4.9.021-9.809.078-14.713.129-2.449.024-4.917-.008-7.377.068q.089-.25.177-.491c.57-1.506,1.044-3.058,1.554-4.588q1.563-4.726,3.087-9.464,2.729-8.487,5.388-17c6.833-2.741,13.54-5.993,20.17-9.274a380.518,380.518,0,0,0,38.77-22.132q9.458-6.154,18.614-12.884,4.539-3.338,8.977-6.848a83.753,83.753,0,0,0,6.8-5.631Z" transform="translate(-209.58 -580.664)" fill="#f27405" fill-rule="evenodd"/>
      <path id="Path_10880" data-name="Path 10880" d="M398.251,645.844l.6-.463c4.13-3.176,8.314-6.309,12.365-9.609q-.7-2.274-1.4-4.545Q406.864,621.584,404,611.9c-.885-2.988-1.725-5.993-2.569-9-.478.47-.962.925-1.425,1.382-1.306,1.293-2.626,2.565-3.985,3.786q-3.073,2.764-6.244,5.374c3.076,10.089,5.995,20.968,8.469,32.4Zm6.692,45.665a238.591,238.591,0,0,1-1.2,48.552q9.4-6.129,18.479-12.842c2.839-2.1,5.642-4.254,8.445-6.41,1.948-1.5,3.86-3.078,5.833-4.542q-2.6-8.112-5.185-16.232-3.705-11.666-7.373-23.343h0a83.71,83.71,0,0,1-6.8,5.631q-4.444,3.5-8.977,6.848Q406.554,690.35,404.943,691.508Z" transform="translate(-305.617 -580.664)" fill="#c5352d" fill-rule="evenodd"/>
      <path id="Path_10881" data-name="Path 10881" d="M317.735,566.894h0a13.251,13.251,0,0,0-7.1-5.507,12.525,12.525,0,0,0-8.779.749,14.4,14.4,0,0,0-6.539,6.817,40.932,40.932,0,0,0-2.169,5.6c-.351,1.051-.722,2.114-1.131,3.137-.2.506-.423,1.036-.67,1.516a11.859,11.859,0,0,1-.966,1.286,1.121,1.121,0,0,1-.2.225c-2.258,8.152-4.805,16.211-7.305,24.268.242-.127.478-.253.7-.385q2.237-1.317,4.446-2.7,4.5-2.8,8.866-5.837c5.774-4.022,11.357-8.389,16.79-12.98,1.48-1.251,2.955-2.517,4.43-3.778.891-.76,1.769-1.636,2.685-2.432-.4-1.407-.789-2.822-1.105-4.25-.211-.945-.331-1.906-.449-2.866a16.17,16.17,0,0,0-1.505-2.864ZM367.8,727.273h0q-2.82-8.551-5.6-17.114-2.688-8.3-5.353-16.615c-1.365,1.238-2.784,2.407-4.187,3.577-2.451,2.045-4.936,4.028-7.448,5.976q-7.524,5.841-15.3,11.256A344.323,344.323,0,0,1,297.9,734.1q-4.659,2.54-9.379,4.94c-.824.421-1.653.857-2.485,1.3l5.509-.024c19.555-.08,39.107-.227,58.662-.231q8.131,0,16.263-.007c1.866,0,3.765-.026,5.673,0-1.571-4.209-2.935-8.529-4.342-12.8ZM331.386,612.506q5.916,19.224,11.938,38.406c-2.961,1.872-5.711,4.256-8.53,6.353q-5.1,3.8-10.285,7.455a390.924,390.924,0,0,1-37.6,23.431c-6.5,3.553-13.075,6.93-19.736,10.082-5.121,2.426-10.312,4.631-15.494,6.871q7.805-24.82,15.522-49.68l1.839-.821a.831.831,0,0,0,.876.7,10.672,10.672,0,0,0,3.8-1.681q1.74-1.008,3.473-2.035c2.418-1.432,4.82-2.9,7.221-4.365q12.7-7.738,24.819-16.617,5.983-4.378,11.784-9.063c3.566-2.88,6.954-5.959,10.372-9.04Z" transform="translate(-225.44 -556.285)" fill="#fff" fill-rule="evenodd"/>
      <path id="Path_10882" data-name="Path 10882" d="M385.562,566.894h0a13.251,13.251,0,0,0-7.1-5.507,12.525,12.525,0,0,0-8.779.749,11.457,11.457,0,0,0-1.177.636c2.739,7.326,5.564,15.446,8.282,24.2q2.379-1.917,4.715-3.894c1.48-1.251,2.955-2.517,4.431-3.778.891-.76,1.769-1.636,2.685-2.432-.4-1.407-.789-2.822-1.105-4.25-.211-.945-.331-1.906-.449-2.866a16.159,16.159,0,0,0-1.505-2.864Zm.779,56.651a327.286,327.286,0,0,1,6.075,41.12q5.143-3.626,10.205-7.4c2.82-2.1,5.57-4.481,8.531-6.353q-6.02-19.18-11.938-38.406h0c-3.418,3.08-6.806,6.159-10.371,9.04q-1.248,1-2.5,2ZM390.9,719a185.444,185.444,0,0,1-4.448,21.181q15.794-.079,31.585-.1,8.131,0,16.263-.007c1.866,0,3.765-.026,5.673,0-1.571-4.209-2.935-8.53-4.342-12.8h0q-2.82-8.551-5.6-17.114-2.688-8.3-5.353-16.615c-1.365,1.238-2.784,2.407-4.187,3.577-2.451,2.045-4.936,4.028-7.448,5.976q-7.524,5.841-15.3,11.256Q394.349,716.723,390.9,719Z" transform="translate(-293.267 -556.285)" fill="#d9c9cb" fill-rule="evenodd"/>
      <g id="Group_15885" data-name="Group 15885">
        <path id="Path_10883" data-name="Path 10883" d="M189.395,742.819a13.959,13.959,0,0,1,1.084-4.73,6.452,6.452,0,0,1,3.148-2.994,6.668,6.668,0,0,1,4.047-.367q1.279-.19,2.563-.3c.112-.484.253-.962.364-1.417.381-1.546.845-3.06,1.291-4.584.813-2.768,1.628-5.534,2.464-8.3q2.574-8.49,5.206-16.961c.072-.234.145-.468.217-.7a1.81,1.81,0,0,1,.434-1.394q4.865-15.692,9.767-31.37,10.5-33.552,21.024-67.1c3.723-11.806,7.3-23.714,11.582-35.279.063-.271.133-.539.208-.807a36.1,36.1,0,0,1,2.338-6.136,18.989,18.989,0,0,1,8.109-8.762c7.147-3.595,15.572-1.563,20.37,5.57a19.876,19.876,0,0,1,2.914,6.793.134.134,0,0,1,.01.026c.587,1.411,1.057,2.881,1.55,4.336.986,2.91,1.9,5.854,2.849,8.781,1.851,5.711,3.6,11.471,5.357,17.217Q301.6,611.682,307,628.99q10.733,34.412,21.812,68.682,3.1,9.586,6.206,19.17c1.82,5.635,3.8,11.259,5.334,17.014a36.561,36.561,0,0,1,4.123.552c.086-.017.173-.031.261-.043a10.486,10.486,0,0,1,5.075.607,10.271,10.271,0,0,1,6.178,7.589c.718,3.167.947,7.834-1.173,10.4a6.187,6.187,0,0,1-4.462,2.136,8.094,8.094,0,0,1-2.683-.314,8.684,8.684,0,0,1-1.247-.432c-.423.026-.847.051-1.27.08-2.64.176-5.281.311-7.922.433-5.151.24-10.3.347-15.457.381-10.433.067-20.865.057-31.3.057h-62.21c-5.8,0-11.593,0-17.388-.106-2.967-.055-5.928-.128-8.889-.339-2.434-.175-4.879-.259-7.3-.57a3.091,3.091,0,0,1-1.463.038,4.574,4.574,0,0,1-2.961-2.211c-1.538-2.49-1.187-6.45-.87-9.293Zm92.02-182.332h0a13.244,13.244,0,0,0-7.1-5.507,12.513,12.513,0,0,0-8.779.75A14.4,14.4,0,0,0,259,562.547a40.936,40.936,0,0,0-2.171,5.6c-.349,1.051-.72,2.114-1.129,3.137-.2.506-.423,1.036-.67,1.516a12.112,12.112,0,0,1-.966,1.286,1.117,1.117,0,0,1-.2.225c-2.258,8.152-4.805,16.211-7.305,24.268.242-.127.478-.255.7-.385q2.237-1.318,4.446-2.7,4.5-2.8,8.866-5.837c5.774-4.022,11.357-8.389,16.787-12.978,1.483-1.253,2.957-2.518,4.433-3.78.891-.76,1.769-1.636,2.685-2.432-.4-1.407-.789-2.82-1.105-4.25-.211-.945-.331-1.906-.451-2.866a16.02,16.02,0,0,0-1.5-2.864ZM295.067,606.1h0c-3.418,3.079-6.806,6.161-10.371,9.038q-5.8,4.684-11.784,9.068-12.111,8.867-24.819,16.614c-2.4,1.464-4.8,2.932-7.218,4.365q-1.735,1.027-3.477,2.035a10.668,10.668,0,0,1-3.8,1.681c-.848.118-1.217-1.238-.674-1.843a9.748,9.748,0,0,1,2.957-1.981q1.611-.866,3.215-1.744c2.138-1.172,4.275-2.351,6.379-3.6q6.387-3.788,12.635-7.867c8.275-5.4,16.35-11.192,24.251-17.272,4.127-3.176,8.314-6.309,12.368-9.609q-.7-2.274-1.4-4.544-2.959-9.643-5.818-19.323c-.885-2.988-1.725-5.993-2.569-9-.478.47-.962.925-1.425,1.381-1.306,1.293-2.626,2.565-3.985,3.786q-3.974,3.572-8.116,6.888a202.8,202.8,0,0,1-17.5,12.485q-2.578,1.639-5.2,3.182c-.986.581-2.049,1.356-3.146,1.916q-4.953,16.022-9.946,32.03-10.115,32.462-20.264,64.91c5.182-2.24,10.373-4.445,15.494-6.869q9.991-4.732,19.736-10.087a391.318,391.318,0,0,0,37.6-23.428q5.183-3.654,10.283-7.457c2.82-2.1,5.57-4.481,8.53-6.353q-6.025-19.18-11.938-38.406Zm12.378,39.806h0a84.064,84.064,0,0,1-6.806,5.631q-4.444,3.5-8.979,6.848-9.148,6.729-18.612,12.884a380.917,380.917,0,0,1-38.77,22.132c-6.63,3.281-13.336,6.533-20.17,9.274q-2.675,8.51-5.388,17-1.523,4.741-3.087,9.464c-.507,1.531-.984,3.083-1.554,4.588q-.089.24-.177.491c2.462-.074,4.928-.044,7.377-.069,4.9-.049,9.809-.106,14.713-.125q8.475-.038,16.952-.07c2.329-1.263,4.806-2.264,7.164-3.431q4.1-2.022,8.156-4.165Q266.53,722,274.6,717.17q15.967-9.545,31.122-20.738c2.839-2.1,5.639-4.256,8.444-6.41,1.948-1.5,3.86-3.078,5.835-4.539q-2.6-8.115-5.187-16.234-3.708-11.663-7.37-23.343Zm24.035,74.961h0q-2.818-8.551-5.595-17.114-2.688-8.3-5.353-16.615c-1.365,1.238-2.784,2.407-4.187,3.577-2.451,2.045-4.938,4.028-7.448,5.976q-7.524,5.841-15.3,11.256a344.309,344.309,0,0,1-32.019,19.744q-4.659,2.54-9.379,4.94c-.824.419-1.653.859-2.485,1.3q2.754-.012,5.508-.023c19.555-.082,39.107-.227,58.662-.234q8.131,0,16.263,0c1.866,0,3.765-.027,5.673,0-1.571-4.209-2.937-8.53-4.344-12.8ZM208.947,750.248h0c5.151-.112,10.3-.148,15.457-.148h31.3c20.736,0,41.474-.1,62.213.031,5.795.038,11.594.044,17.388.316q4.444.205,8.887.464.7.041,1.4.077l.044-.038c1.135-.859,2.866-.042,4.165-.051a2.689,2.689,0,0,0,2.367-1.077,6.6,6.6,0,0,0,.453-3.216,13.258,13.258,0,0,0-.461-3.531,5.886,5.886,0,0,0-4.258-4.256,22.79,22.79,0,0,0-3.531-.412,9.229,9.229,0,0,0-1.238-.044c-.92.136-1.846.236-2.778.311a1.675,1.675,0,0,1-2.31.131c-2,.076-4,.065-5.959.065q-7.357,0-14.713,0c-9.746,0-19.492.05-29.236-.017q-29.332-.2-58.662-.323-8.131-.035-16.263-.12c-3.816-.038-7.688.076-11.523-.175a1.245,1.245,0,0,1-.286.427c-.911.877-1.687.645-2.782.484a6.64,6.64,0,0,0-2.649.066,3.309,3.309,0,0,0-1.64.76,4.418,4.418,0,0,0-.887,2.4,23.224,23.224,0,0,0-.426,6.352,3.622,3.622,0,0,0,.737,2.089,1.281,1.281,0,0,0,.566.356c2.224-.3,4.462-.392,6.7-.55Q204.986,750.335,208.947,750.248Z" transform="translate(-189.12 -549.878)" fill="#250c03" fill-rule="evenodd"/>
        <path id="Path_10884" data-name="Path 10884" d="M566.477,1016.324c.215-.2.44-.386.659-.577.248-.219.525-.366.777-.573a.624.624,0,0,1,.878.2.861.861,0,0,1-.052,1.011c-.171.249-.295.537-.479.783s-.349.489-.535.72a5.9,5.9,0,0,1-1.274,1.272c-.742.5-1.7-.518-1.211-1.369A6.116,6.116,0,0,1,566.477,1016.324Z" transform="translate(-407.405 -819.948)" fill="#250c03" fill-rule="evenodd"/>
        <path id="Path_10885" data-name="Path 10885" d="M553.917,1007.87c1.514-1.278,3.034-2.544,4.552-3.816.969-.813,2.247,1.044,1.3,1.9-1.474,1.335-2.944,2.679-4.42,4.01-1.146,1.03-2.75,2.969-4.315,2.674a.764.764,0,0,1-.5-.746C550.676,1010.13,552.765,1008.839,553.917,1007.87Z" transform="translate(-398.942 -813.44)" fill="#250c03" fill-rule="evenodd"/>
        <path id="Path_10886" data-name="Path 10886" d="M537.871,1007.368a49.132,49.132,0,0,1,4.515-3.433c.984-.663,1.824,1.015.891,1.722a53.393,53.393,0,0,0-4.326,3.62c-1.082,1.013-2.439,2.9-3.9,3-.438.032-.638-.463-.588-.871C534.67,1009.708,536.755,1008.32,537.871,1007.368Z" transform="translate(-389.607 -813.399)" fill="#250c03" fill-rule="evenodd"/>
        <path id="Path_10887" data-name="Path 10887" d="M518.869,1010.337c1.381-1.082,2.79-2.114,4.2-3.154.765-.565,1.716.783.99,1.454-1.27,1.173-2.536,2.351-3.835,3.483-1.1.956-2.525,2.653-4,2.6a.734.734,0,0,1-.63-.935C515.989,1012.224,517.766,1011.2,518.869,1010.337Z" transform="translate(-378.644 -815.294)" fill="#250c03" fill-rule="evenodd"/>
        <path id="Path_10888" data-name="Path 10888" d="M501.824,1009.656q1.86-1.343,3.721-2.683c1.032-.743,1.96,1.09.954,1.846q-1.841,1.381-3.681,2.762c-1.007.755-2.116,1.88-3.386,1.682-.312-.047-.482-.5-.406-.809C499.362,1011.107,500.853,1010.357,501.824,1009.656Z" transform="translate(-369.03 -815.15)" fill="#250c03" fill-rule="evenodd"/>
        <path id="Path_10889" data-name="Path 10889" d="M482.169,1009.8a36.018,36.018,0,0,1,3.412-2.278c.909-.522,2.077.907,1.164,1.709a37.539,37.539,0,0,1-3.316,2.584c-.971.68-2.085,1.651-3.268,1.459-.335-.055-.533-.552-.445-.886C480.036,1011.186,481.289,1010.451,482.169,1009.8Z" transform="translate(-357.817 -815.505)" fill="#250c03" fill-rule="evenodd"/>
        <path id="Path_10890" data-name="Path 10890" d="M459.334,1014.717q1.794-.869,3.588-1.742c.986-.478,1.866,1.125.862,1.67q-1.838,1-3.672,1.99c-.956.518-2.255,1.508-3.336,1.125a.721.721,0,0,1-.358-1C456.868,1015.615,458.387,1015.179,459.334,1014.717Z" transform="translate(-344.263 -818.685)" fill="#250c03" fill-rule="evenodd"/>
        <path id="Path_10891" data-name="Path 10891" d="M438.2,1014.6c.743-.368,1.426-.771,2.2-1.063,1.211-.457,1.731,1.705.526,2.16a21.784,21.784,0,0,1-2.24.62,3.392,3.392,0,0,1-1.982.274.574.574,0,0,1-.289-.8A3.8,3.8,0,0,1,438.2,1014.6Z" transform="translate(-332.649 -819.026)" fill="#250c03" fill-rule="evenodd"/>
        <path id="Path_10892" data-name="Path 10892" d="M417.848,1012.807a1.067,1.067,0,0,1,1.306.842,1.247,1.247,0,0,1-.741,1.479,3.034,3.034,0,0,1-2.211-.022c-.463-.235-.391-.9-.145-1.262A3.237,3.237,0,0,1,417.848,1012.807Z" transform="translate(-320.759 -818.616)" fill="#250c03" fill-rule="evenodd"/>
        <path id="Path_10893" data-name="Path 10893" d="M523.551,973.181a7.6,7.6,0,0,1-2.674,1.583c-.885.251-1.272-1.023-.592-1.585a7.406,7.406,0,0,1,2.784-1.3C523.8,971.694,524.1,972.709,523.551,973.181Z" transform="translate(-381.181 -794.866)" fill="#250c03" fill-rule="evenodd"/>
        <path id="Path_10894" data-name="Path 10894" d="M510.345,958.518c-1.39,1.087-2.794,2.135-4.216,3.167a21.377,21.377,0,0,1-2.089,1.407,2.313,2.313,0,0,1-2,.32.61.61,0,0,1-.362-.72c.381-1.711,1.99-2.5,3.25-3.334,1.455-.964,2.916-1.9,4.4-2.811C510.482,955.84,511.4,957.69,510.345,958.518Z" transform="translate(-370.572 -785.884)" fill="#250c03" fill-rule="evenodd"/>
        <path id="Path_10895" data-name="Path 10895" d="M503.432,947.74a26.182,26.182,0,0,0-3.887,2.628c-.625.5-2.386,2.421-3.081,1.022-.644-1.3,1.409-2.7,2.114-3.256a18.561,18.561,0,0,1,4.119-2.365C503.7,945.331,504.4,947.216,503.432,947.74Z" transform="translate(-367.481 -779.68)" fill="#250c03" fill-rule="evenodd"/>
        <path id="Path_10896" data-name="Path 10896" d="M500.39,927.114l-2.961,2.455c-.8.665-1.769,1.781-2.839,1.621a.656.656,0,0,1-.558-.831c.2-1.214,1.436-1.9,2.264-2.559l3.148-2.514C500.436,924.494,501.346,926.322,500.39,927.114Z" transform="translate(-366.132 -767.713)" fill="#250c03" fill-rule="evenodd"/>
        <path id="Path_10897" data-name="Path 10897" d="M498.434,911.429l-1.194,1.061a6.4,6.4,0,0,1-1.28,1.023.812.812,0,0,1-1.031-.152,1.073,1.073,0,0,1-.133-1.169,13.113,13.113,0,0,1,2.24-2.348.931.931,0,0,1,1.4,0A1.234,1.234,0,0,1,498.434,911.429Z" transform="translate(-366.516 -758.678)" fill="#250c03" fill-rule="evenodd"/>
        <path id="Path_10898" data-name="Path 10898" d="M496.814,901.28a.714.714,0,0,1-.476-.049.853.853,0,0,1-.375-.362,1.732,1.732,0,0,1-.08-.213.966.966,0,0,1,.2-.864c.006-.006.013-.015.019-.021s.006-.016.011-.025c.047-.067.093-.139.141-.206s.122-.11.183-.16a.867.867,0,0,1,.459-.143.921.921,0,0,1,.83.634,1.118,1.118,0,0,1-.118,1.016A.849.849,0,0,1,496.814,901.28Z" transform="translate(-367.196 -752.703)" fill="#250c03" fill-rule="evenodd"/>
        <path id="Path_10899" data-name="Path 10899" d="M458.905,769.025a9.864,9.864,0,0,1-2.552,1.967.68.68,0,0,1-.8-.371.928.928,0,0,1,.109-.977,9.707,9.707,0,0,1,2.31-1.992C458.691,767.117,459.594,768.4,458.905,769.025Z" transform="translate(-343.746 -676.236)" fill="#250c03" fill-rule="evenodd"/>
        <path id="Path_10900" data-name="Path 10900" d="M449.748,755.109l-2.575,2.464c-.577.549-1.683,1.722-2.443.808-.718-.859.253-1.908.809-2.426l2.72-2.533C449.3,752.457,450.791,754.111,449.748,755.109Z" transform="translate(-337.37 -667.879)" fill="#250c03" fill-rule="evenodd"/>
        <path id="Path_10901" data-name="Path 10901" d="M442.854,731.933l-2.975,2.956c-.758.754-1.712,2.108-2.822,1.95a.607.607,0,0,1-.554-.625c0-1.3,1.21-2.116,2-2.887l2.995-2.936C442.425,729.477,443.789,731,442.854,731.933Z" transform="translate(-332.742 -654.514)" fill="#250c03" fill-rule="evenodd"/>
        <path id="Path_10902" data-name="Path 10902" d="M440.174,713.229c-.663.588-1.316,1.2-2,1.758-.565.465-1.228,1.122-1.971.914a.538.538,0,0,1-.345-.516c-.015-.819.657-1.379,1.149-1.876.6-.609,1.245-1.169,1.87-1.748C439.791,710.914,441.1,712.416,440.174,713.229Z" transform="translate(-332.368 -643.716)" fill="#250c03" fill-rule="evenodd"/>
        <path id="Path_10903" data-name="Path 10903" d="M403.16,595.923c-.906.529-2.022,1.449-3.062,1.47-.865.017-1.213-1.175-.676-1.849a3.654,3.654,0,0,1,1.489-.933l1.507-.68C403.432,593.474,404.122,595.363,403.16,595.923Z" transform="translate(-311.066 -575.412)" fill="#250c03" fill-rule="evenodd"/>
        <path id="Path_10904" data-name="Path 10904" d="M396.865,583.968a15.445,15.445,0,0,1-4.26,1.567c-1.173.124-1.4-1.718-.56-2.344a15.937,15.937,0,0,1,4.208-1.741C397.69,580.934,398.226,583.379,396.865,583.968Z" transform="translate(-306.638 -568.166)" fill="#250c03" fill-rule="evenodd"/>
        <path id="Path_10905" data-name="Path 10905" d="M390.723,569.058a6.61,6.61,0,0,1-.615.25,2.292,2.292,0,0,1-.409.089.768.768,0,0,1-.348.013.327.327,0,0,1-.091.007,1.087,1.087,0,0,1-.994-.756,1.369,1.369,0,0,1,.225-1.343c.006-.01.011-.013.015-.021.055-.08.109-.16.164-.238a2.693,2.693,0,0,1,.451-.394,6.547,6.547,0,0,1,.567-.388,1.283,1.283,0,0,1,1.906.729,1.625,1.625,0,0,1,0,1.171A1.465,1.465,0,0,1,390.723,569.058Z" transform="translate(-304.689 -559.281)" fill="#250c03" fill-rule="evenodd"/>
      </g>
    </g>
    <g id="Group_15889" data-name="Group 15889" transform="translate(128.313 114.931)">
      <path id="Path_10906" data-name="Path 10906" d="M694.271,579.252c0-23.4.029-46.8-.055-70.206-.02-6.585.063-13.189-.1-19.771-.042-1.615-.1-3.231-.228-4.841-.063-.807-.008-1.62-.076-2.422-.069-.821-.417-1.594-.5-2.421q-.215-2.208-.43-4.42c.029-1.009.053-2.02.089-3.029a29.526,29.526,0,0,0,0-5.089c-.452-3.235-2.936-4.932-6.006-5.311a60.73,60.73,0,0,0-8.411-.194c-16.931-1.306-33.862-1.15-50.839-1.145l-52.166,0c-34.774,0-69.553-.154-104.329.065-9.759.063-19.519.076-29.277.19-4.692.057-9.388.089-14.078.21-.6-.071-1.21-.128-1.817-.164a62.942,62.942,0,0,0-10.394.238c-3.071.326-6.239,1.106-8.331,3.565a12.355,12.355,0,0,0-2.525,8.023c-.021,1.752.069,3.491.166,5.241,0,.044,0,.088.008.135-.017.154-.031.31-.042.468-.2,2.818-.372,5.644-.474,8.468-.2,5.643-.248,11.289-.251,16.937q-.009,17.139-.015,34.277-.016,34.269.514,68.555c.1,6.449.133,12.922.617,19.357q.05.663.1,1.326c-.114.845-.219,1.691-.271,2.546-.116,1.881-.238,3.759-.3,5.642-.12,3.826-.107,7.65-.063,11.48a18.748,18.748,0,0,0,.35,5.24,5.129,5.129,0,0,0,3.18,3.3,10.361,10.361,0,0,0,4.148.644q2.224-.057,4.448-.135a27.108,27.108,0,0,0,4.645.637c2.323.122,4.652.122,6.977.143,4.294.042,8.588.009,12.88.009l26.294,0q12.287,0,24.575,0-.66,1.566-1.331,3.125-1.548,3.563-3.18,7.088-1.592,3.437-3.233,6.852c-.575,1.2-1.1,2.439-1.588,3.681-.1.255-.2.5-.282.747-.293.015-.586.034-.876.052-.914.059-1.83.108-2.738.185-.267-.025-.537-.046-.8-.069a23.815,23.815,0,0,0-5.854-.145c-3.639.624-5.846,4.125-6.437,7.526a44.839,44.839,0,0,0-.453,5.934c-.076,1.988-.245,4-.215,5.989a5.327,5.327,0,0,0,2.439,4.8,7.885,7.885,0,0,0,4.712.689c1.186-.126,2.373-.263,3.559-.4.708.017,1.417,0,2.089.021,2.422.07,4.841.063,7.263.063H589.868q8.272,0,16.543-.116c5.61-.082,11.38.1,16.914-.916a1.134,1.134,0,0,0,.741-.478,4.494,4.494,0,0,0,.908-.565c2.685-2.22,2.8-6.214,2.859-9.415a42.7,42.7,0,0,0-.265-5.685,15.677,15.677,0,0,0-1.243-5.45c-1.75-3.416-5.654-3.2-8.911-3-1.7.1-3.416.2-5.132.332a28.465,28.465,0,0,0-1.571-3.91c-.895-2.079-1.8-4.151-2.676-6.235q-1.3-3.1-2.6-6.2-.682-1.642-1.354-3.29c-.154-.378-.3-.777-.441-1.177q10.918-.032,21.827-.108c9.838-.075,19.677-.138,29.513-.24,9.137-.093,18.312.105,27.4-.855,2.89-.036,6.019-.316,8.245-2.315a7.77,7.77,0,0,0,1.6-2.049,1.573,1.573,0,0,0,1.149-1.411c.384-2.939.417-5.913.523-8.876s.2-5.917.267-8.876c.133-5.85.091-11.7.091-17.555Q694.273,596.906,694.271,579.252Z" transform="translate(-404.195 -460.355)" fill="#250c03" fill-rule="evenodd"/>
      <path id="Path_10907" data-name="Path 10907" d="M685.068,658.932h0c-.463.036-.931.07-1.394.1-6.94-.522-13.906-.459-20.873-.53q-13.149-.133-26.3-.219c-17.529-.135-35.058-.114-52.587-.114q-52.586-.007-105.173-.007-14.757,0-29.513,0H435.267a4.891,4.891,0,0,0-2.232-.6.89.89,0,0,0,.368-1.019c-.457-1.512-2.361-2.352-3.611-3.148l-4.418-2.811c-2.944-1.875-5.972-3.611-8.994-5.355-.931-.535-1.638.794-.821,1.406,2.754,2.058,5.5,4.129,8.343,6.067q2.085,1.421,4.167,2.84a16.624,16.624,0,0,0,3.136,2.032c-.168.007-.335.015-.5.017-1.807.053-3.611.177-5.416.268-3.271.165-6.547.577-9.82.654-.962.022-2.03-.026-2.407-1.062-.51-1.39-.236-3.272-.259-4.725-.059-3.491-.139-6.985-.345-10.475-.093-1.546-.217-3.087-.35-4.633.381-6.8.777-13.591.884-20.406.182-11.424.24-22.853.328-34.277q.262-34.279.24-68.556c0-6.45.051-12.908-.181-19.357-.116-3.228-.263-6.454-.491-9.678-.055-.8-.086-1.615-.169-2.42-.023-.223-.057-.444-.1-.665A23.621,23.621,0,0,1,412.8,479c.409-2.712,1.567-5.709,4.338-6.73a17.65,17.65,0,0,1,5.046-.817c1.967-.124,3.932-.146,5.9-.19,2.1-.048,4.195-.086,6.292-.137,1.049-.026,2.087-.072,3.136-.051a8.628,8.628,0,0,0,1.643-.057c1.4.009,2.8.017,4.188.036,8.695.118,17.39.137,26.085.192,17.388.109,34.775.1,52.166.1q52.162,0,104.331.01c14.759,0,29.515.2,44.252-.394a5.235,5.235,0,0,0,1.181.3c.858.095,1.725.139,2.588.154,1.723.027,3.45.021,5.172.034,3.318.019,6.633.01,9.95-.008,2.036-.011,4.989-.116,5.5,2.379a26.021,26.021,0,0,1,.206,4.475c.038,1.656.068,3.313.114,4.968.021.807.053,1.613.089,2.42a22.12,22.12,0,0,0-.465,3.289c-.027,1.482-.167,2.957-.217,4.439-.2,5.844-.122,11.7-.152,17.552-.063,11.767-.046,23.536-.063,35.3q-.038,35.106-.01,70.206c0,6.587-.106,13.186.044,19.774.075,3.226.173,6.456.274,9.683.063,2,.1,4.022.206,6.029a7.2,7.2,0,0,1-1.769,4.917C691.012,658.824,687.518,658.74,685.068,658.932Z" transform="translate(-408.788 -466.516)" fill="#fff" fill-rule="evenodd"/>
      <path id="Path_10908" data-name="Path 10908" d="M697.658,647.325a.926.926,0,0,0,.893-1.076.606.606,0,0,0,.47-.577c.1-1.208.314-2.413.343-3.626s.038-2.418.059-3.626q.056-3.628.1-7.253.08-7.252.154-14.5.157-14.511.156-29.014.015-29.01,0-58.024c-.008-5.372.006-10.746-.067-16.118q-.061-4.129-.165-8.259c-.027-1.1-.049-2.182-.089-3.266a11.175,11.175,0,0,0,.152-1.486,7.578,7.578,0,0,0-.358-3.3,2.683,2.683,0,0,0-2.27-1.632,5.7,5.7,0,0,0-1.354.025,3.723,3.723,0,0,0-.692.168c-7.948-.472-15.95-.215-23.91-.2-8.061.011-16.114-.183-24.171-.227-16.114-.091-32.224-.263-48.342-.265q-48.091-.007-96.188.033c-9.043.008-18.085.021-27.129.133q-6.659.079-13.317.166c-.091,0-.183,0-.274,0a.61.61,0,0,0-.194-.148,10.14,10.14,0,0,0-3.925-.611c-1.437-.048-2.883.015-4.321.032-2.853.032-5.706.019-8.556.141-2.034.089-5.388.19-5.856,2.708a6.76,6.76,0,0,0-.078,1.466c-.684,9.278-.437,18.662-.489,27.961q-.079,14.316-.134,28.631-.083,28.735-.051,57.468V629.18c0,4.081-.021,8.156.179,12.225a4.647,4.647,0,0,0,.073,3.51c.057.112.12.215.186.318,0,.028,0,.053.006.078a.672.672,0,0,0,.647.653,5.917,5.917,0,0,0,3.342,1.108c2.131.168,4.315.105,6.459.088a88.019,88.019,0,0,0,10.211.383c4,.038,8,.034,12,.038q12.253.013,24.5.024,24.5.021,49,.048c32.666.031,65.333.24,98,.165q13.75-.032,27.5-.089C679.3,647.676,688.531,647.98,697.658,647.325Z" transform="translate(-423.777 -480.25)" fill="#a5ddeb" stroke="#000" stroke-linecap="round" stroke-linejoin="round" stroke-miterlimit="22.926" stroke-width="0.216" fill-rule="evenodd"/>
      <path id="Path_10909" data-name="Path 10909" d="M697.875,708.644a.926.926,0,0,0,.893-1.076.607.607,0,0,0,.47-.577c.1-1.208.314-2.413.343-3.626s.038-2.418.059-3.626q.056-3.628.1-7.253.08-7.252.154-14.5.157-14.511.156-29.014.013-24.36.012-48.723C658.445,635.032,579.4,681.256,438.3,705.664a3.672,3.672,0,0,0,.226.568c.057.112.12.215.185.318,0,.028,0,.053.006.078a.671.671,0,0,0,.647.653,5.917,5.917,0,0,0,3.342,1.108c2.131.168,4.315.105,6.458.088a88.058,88.058,0,0,0,10.211.384c4,.038,8,.034,12,.038q12.253.012,24.5.024,24.5.021,49,.048c32.666.032,65.333.24,98,.165q13.75-.032,27.5-.089C679.52,708.995,688.748,709.3,697.875,708.644Z" transform="translate(-423.993 -541.57)" fill="#8bd3da" fill-rule="evenodd"/>
      <path id="Path_10910" data-name="Path 10910" d="M737.637,876.872h0c-1.7,6.153-10.9,9.044-14.655,3.038a6.6,6.6,0,0,1,.647-7.594c1.286-.39,2.471-1.027,3.8-1.327a11.107,11.107,0,0,1,4.47-.092C734.824,871.45,738.627,873.307,737.637,876.872Z" transform="translate(-588.743 -698.595)" fill="#70cacb" stroke="#000" stroke-linecap="round" stroke-linejoin="round" stroke-miterlimit="22.926" stroke-width="0.216" fill-rule="evenodd"/>
      <path id="Path_10911" data-name="Path 10911" d="M732.632,865.919a13.457,13.457,0,0,0-6.558-.771c-2.2.28-4.692.938-5.963,2.884a.682.682,0,0,0,.027.8,7.623,7.623,0,0,0-1.337,6.838,9.205,9.205,0,0,0,8.663,6.18,11.541,11.541,0,0,0,9.64-6.039,6.551,6.551,0,0,0,.4-6.088C736.566,867.85,734.519,866.654,732.632,865.919Z" transform="translate(-586.669 -695.298)" fill="#f05146" stroke="#000" stroke-linecap="round" stroke-linejoin="round" stroke-miterlimit="22.926" stroke-width="0.216" fill-rule="evenodd"/>
      <path id="Path_10912" data-name="Path 10912" d="M862.035,929.1h0q-2.546-.126-5.092-.25,2.5,0,5.006-.007C861.976,928.925,862,929.012,862.035,929.1Z" transform="translate(-667.044 -732.34)" fill="#70cacb" stroke="#000" stroke-linecap="round" stroke-linejoin="round" stroke-miterlimit="22.926" stroke-width="0.216" fill-rule="evenodd"/>
      <path id="Path_10913" data-name="Path 10913" d="M718.973,947.345h0q1.349,3.073,2.738,6.132c.358.79.745,1.758,1.217,2.685q-1.57-.028-3.146-.027-7.06,0-14.122-.01-14.221-.006-28.443-.017-28.446-.019-56.889.08-7.868.038-15.737.149c-.926.015-1.855.027-2.786.047.375-.676.71-1.354,1.03-1.965,1.232-2.35,2.379-4.743,3.506-7.143q1.384-2.956,2.7-5.947c6.233.914,12.677.822,18.946.961,6.916.155,13.835.291,20.753.3,13.838.017,27.671.007,41.508-.124,7.777-.074,15.634.094,23.371-.722a1.513,1.513,0,0,0,1.493-1.775,2.3,2.3,0,0,0,.581-.343c.171.408.337.816.508,1.226C717.107,943.022,718.025,945.189,718.973,947.345Z" transform="translate(-518.92 -738.601)" fill="#fff" stroke="#000" stroke-linecap="round" stroke-linejoin="round" stroke-miterlimit="22.926" stroke-width="0.216" fill-rule="evenodd"/>
      <path id="Path_10914" data-name="Path 10914" d="M712.359,988.855h0a4.222,4.222,0,0,1,.59,1.83,38.833,38.833,0,0,1,.4,10.752,5.678,5.678,0,0,1-1.324,3.4,2.7,2.7,0,0,1-.758.556,121.016,121.016,0,0,0-12.466-.518c-4.974-.086-9.952-.152-14.93-.152H577.751q-1.127,0-2.255,0a18.065,18.065,0,0,0-7.218.08q-1.516.054-3.032.122a6.379,6.379,0,0,0-2.319.6c-.5.05-1.009.082-1.51.082-.882,0-1.39-.015-1.495-.953a36.3,36.3,0,0,1,.1-4.921c.047-1.718.049-3.447.177-5.164.16-2.173.847-5.153,3.3-5.778,1.657-.421,3.627-.156,5.326-.193.368-.009.737-.019,1.105-.039q.713.051,1.434.1c2.35.154,4.7.207,7.059.274,4.7.135,9.417.143,14.122.164q14.224.07,28.446.084,28.444.031,56.888,0l15.735-.012a102.267,102.267,0,0,0,13.76-.636,18.319,18.319,0,0,1,4.058-.036A2.612,2.612,0,0,1,712.359,988.855Z" transform="translate(-494.565 -766.907)" fill="#fff" stroke="#000" stroke-linecap="round" stroke-linejoin="round" stroke-miterlimit="22.926" stroke-width="0.216" fill-rule="evenodd"/>
      <g id="Group_15887" data-name="Group 15887" transform="translate(0 0)">
        <path id="Path_10915" data-name="Path 10915" d="M694.271,579.252c0-23.4.029-46.8-.052-70.206-.023-6.585.061-13.189-.1-19.771-.041-1.615-.1-3.23-.226-4.841-.063-.8-.011-1.62-.076-2.422-.069-.821-.417-1.594-.5-2.419q-.215-2.212-.43-4.422c.029-1.011.053-2.022.089-3.029a29.5,29.5,0,0,0,0-5.089c-.455-3.235-2.936-4.932-6.005-5.311a60.733,60.733,0,0,0-8.411-.194c-16.931-1.306-33.862-1.148-50.838-1.146l-52.166.007c-34.774,0-69.555-.156-104.329.063-9.759.063-19.519.074-29.277.192-4.692.055-9.388.086-14.078.208-.6-.071-1.211-.128-1.817-.164a62.7,62.7,0,0,0-10.394.238c-3.071.326-6.24,1.108-8.331,3.565a12.355,12.355,0,0,0-2.525,8.023c-.021,1.754.069,3.491.166,5.241l.006.135c-.015.154-.029.31-.04.468-.2,2.818-.372,5.644-.474,8.468-.2,5.644-.248,11.289-.251,16.937q-.006,17.139-.015,34.277-.016,34.269.512,68.555c.1,6.449.135,12.922.62,19.357q.05.663.1,1.326c-.114.845-.221,1.691-.271,2.546-.116,1.881-.238,3.759-.3,5.642-.12,3.826-.107,7.65-.063,11.48a18.754,18.754,0,0,0,.35,5.239,5.13,5.13,0,0,0,3.18,3.3,10.366,10.366,0,0,0,4.148.644q2.224-.057,4.448-.135a27.1,27.1,0,0,0,4.648.637c2.32.122,4.649.122,6.974.143,4.294.042,8.588.009,12.88.009q13.147,0,26.294,0h24.575q-.657,1.566-1.331,3.125-1.548,3.563-3.18,7.088-1.592,3.437-3.233,6.852c-.575,1.2-1.1,2.438-1.585,3.681-.1.255-.2.5-.284.748-.293.017-.586.034-.876.052-.914.059-1.83.108-2.738.185-.27-.025-.535-.048-.8-.069a23.807,23.807,0,0,0-5.852-.146c-3.637.624-5.846,4.126-6.437,7.526a44.854,44.854,0,0,0-.453,5.934c-.076,1.988-.245,4-.215,5.989a5.329,5.329,0,0,0,2.438,4.8,7.882,7.882,0,0,0,4.712.689q1.779-.189,3.559-.4c.708.017,1.417,0,2.089.021,2.422.07,4.841.063,7.263.063H589.869q8.272,0,16.543-.116c5.61-.084,11.38.1,16.916-.916a1.135,1.135,0,0,0,.739-.478,4.407,4.407,0,0,0,.908-.565c2.685-2.22,2.8-6.214,2.859-9.415a42.706,42.706,0,0,0-.265-5.686,15.676,15.676,0,0,0-1.243-5.45c-1.75-3.416-5.654-3.2-8.911-3-1.7.1-3.416.2-5.132.332a28.356,28.356,0,0,0-1.571-3.91c-.895-2.076-1.8-4.151-2.676-6.235q-1.305-3.1-2.6-6.2-.682-1.642-1.354-3.291c-.154-.377-.3-.775-.441-1.175q10.915-.032,21.827-.108c9.838-.075,19.675-.138,29.513-.24,9.137-.093,18.312.105,27.405-.855,2.889-.036,6.018-.316,8.244-2.313a7.811,7.811,0,0,0,1.6-2.051,1.575,1.575,0,0,0,1.149-1.411c.384-2.939.417-5.913.523-8.876s.2-5.919.267-8.876c.133-5.85.091-11.7.091-17.555q.006-17.649,0-35.3ZM501.743,660.258h0c.061,0,.122,0,.184,0l-.192.009.008-.006Zm15.231-.464h0c.647-.015,1.293-.021,1.94-.034.067.006.137.01.2.017s.12.012.179.016q-1.7.032-3.413.068-2.632.057-5.261.127c2.118-.081,4.237-.152,6.351-.194ZM621.988,682.3h0a4.224,4.224,0,0,1,.59,1.83,38.771,38.771,0,0,1,.4,10.752,5.67,5.67,0,0,1-1.322,3.4,2.736,2.736,0,0,1-.758.555,121.051,121.051,0,0,0-12.466-.518c-4.974-.086-9.952-.152-14.93-.152H487.381q-1.127,0-2.255,0a18.062,18.062,0,0,0-7.218.08q-1.516.054-3.032.125a6.292,6.292,0,0,0-2.319.6c-.506.046-1.007.079-1.51.079-.88,0-1.39-.015-1.495-.953a36.545,36.545,0,0,1,.095-4.921c.048-1.718.051-3.449.179-5.164.16-2.173.847-5.151,3.3-5.778,1.657-.422,3.626-.156,5.326-.193.368-.009.737-.019,1.107-.039.474.034.952.065,1.432.1,2.351.154,4.7.207,7.059.274,4.7.135,9.417.143,14.122.164q14.224.07,28.446.084,28.444.031,56.888,0l15.735-.012a102.287,102.287,0,0,0,13.76-.636,18.41,18.41,0,0,1,4.058-.038,2.65,2.65,0,0,1,.928.373Zm-17.74-13.2h0q1.351,3.073,2.738,6.132c.358.79.745,1.758,1.217,2.684-1.046-.019-2.1-.025-3.146-.027q-7.06,0-14.122-.011-14.221-.006-28.443-.017-28.445-.019-56.889.08-7.868.038-15.737.151c-.927.013-1.855.026-2.786.045.375-.676.71-1.354,1.03-1.965,1.232-2.35,2.379-4.743,3.5-7.144q1.387-2.956,2.7-5.947c6.233.914,12.677.822,18.946.961,6.916.156,13.836.291,20.753.3,13.838.017,27.671.009,41.508-.124,7.777-.074,15.633.094,23.37-.722a1.521,1.521,0,0,0,1.516-1.512,1.506,1.506,0,0,0-.023-.263,2.191,2.191,0,0,0,.581-.343c.171.408.337.816.507,1.225.906,2.174,1.825,4.34,2.773,6.5Zm-5.062-11.989h0q-2.546-.126-5.092-.25,2.5,0,5.008-.007c.026.086.055.173.085.257Zm81.289-4.338h0c-.463.033-.929.067-1.394.1-6.94-.522-13.906-.459-20.873-.53q-13.149-.133-26.3-.219c-17.529-.135-35.058-.114-52.587-.114Q526.74,652,474.153,652q-14.757,0-29.513,0H430.674a4.89,4.89,0,0,0-2.232-.6.892.892,0,0,0,.368-1.021c-.457-1.512-2.361-2.35-3.611-3.146l-4.418-2.812c-2.944-1.874-5.972-3.611-8.994-5.355-.931-.535-1.638.8-.821,1.406,2.754,2.058,5.5,4.128,8.343,6.067l4.168,2.843a16.8,16.8,0,0,0,3.136,2.03c-.168.007-.335.013-.5.017-1.807.053-3.611.177-5.416.268-3.271.164-6.547.577-9.82.653-.964.021-2.03-.026-2.409-1.062-.508-1.39-.234-3.272-.257-4.725-.059-3.494-.139-6.987-.345-10.475-.093-1.546-.217-3.087-.35-4.633.381-6.8.777-13.591.884-20.406.182-11.426.24-22.85.328-34.277q.262-34.279.24-68.555c0-6.45.051-12.908-.181-19.354-.116-3.231-.265-6.456-.491-9.681-.055-.8-.086-1.615-.169-2.42-.023-.223-.057-.444-.1-.665a23.614,23.614,0,0,1,.183-3.254c.409-2.712,1.569-5.709,4.338-6.73a17.65,17.65,0,0,1,5.046-.817c1.967-.124,3.932-.145,5.9-.19,2.1-.048,4.195-.086,6.292-.137,1.051-.026,2.087-.072,3.136-.051a8.618,8.618,0,0,0,1.642-.057c1.4.009,2.8.017,4.189.036,8.695.118,17.39.137,26.083.192,17.39.109,34.777.1,52.166.1l104.333.013c14.76,0,29.515.2,44.252-.394a5.1,5.1,0,0,0,1.181.3c.858.1,1.725.141,2.588.156,1.723.027,3.45.021,5.172.031,3.319.021,6.633.01,9.95-.006,2.036-.01,4.989-.116,5.5,2.38a25.776,25.776,0,0,1,.206,4.474c.038,1.655.068,3.313.114,4.968.021.807.055,1.613.089,2.42a22.113,22.113,0,0,0-.465,3.289c-.029,1.482-.167,2.957-.217,4.439-.2,5.844-.122,11.7-.152,17.552-.063,11.767-.046,23.537-.061,35.3q-.04,35.106-.012,70.208c0,6.587-.106,13.185.044,19.772.075,3.226.173,6.456.274,9.683.063,2.005.1,4.022.206,6.031a7.189,7.189,0,0,1-1.769,4.915C686.419,652.664,682.925,652.579,680.475,652.773Z" transform="translate(-404.195 -460.356)" fill="#250c03" fill-rule="evenodd"/>
        <path id="Path_10916" data-name="Path 10916" d="M697.658,647.325a.924.924,0,0,0,.891-1.076.611.611,0,0,0,.474-.577c.1-1.208.312-2.413.341-3.626s.038-2.418.059-3.626c.038-2.418.076-4.835.1-7.253q.077-7.252.152-14.5.157-14.508.156-29.014.015-29.01,0-58.024c-.008-5.372.006-10.746-.067-16.118q-.061-4.132-.165-8.261c-.027-1.093-.049-2.18-.089-3.264a11.144,11.144,0,0,0,.152-1.486,7.584,7.584,0,0,0-.358-3.3,2.68,2.68,0,0,0-2.27-1.632,5.676,5.676,0,0,0-1.352.025,3.905,3.905,0,0,0-.695.168c-7.948-.472-15.95-.215-23.91-.2-8.061.011-16.113-.183-24.17-.227-16.114-.088-32.224-.263-48.342-.265q-48.091-.007-96.188.033c-9.043.008-18.085.021-27.129.133q-6.659.079-13.317.166c-.093,0-.183,0-.274,0a.588.588,0,0,0-.194-.148,10.14,10.14,0,0,0-3.925-.611c-1.437-.048-2.885.015-4.324.032-2.851.032-5.7.021-8.554.141-2.034.086-5.391.19-5.856,2.708a6.748,6.748,0,0,0-.078,1.466c-.684,9.278-.437,18.662-.489,27.959q-.078,14.318-.134,28.633-.082,28.735-.051,57.468V629.18c0,4.081-.021,8.153.179,12.224a4.638,4.638,0,0,0,.075,3.51,3.368,3.368,0,0,0,.184.318c0,.028,0,.053.006.078a.677.677,0,0,0,.647.655,5.947,5.947,0,0,0,3.342,1.106c2.131.168,4.315.105,6.458.088a87.993,87.993,0,0,0,10.211.383c4,.038,8,.034,12,.038q12.25.013,24.5.024,24.5.021,49,.048c32.666.031,65.333.24,98,.165q13.75-.032,27.5-.089c9.148-.052,18.375.251,27.5-.4Zm-98-2.306h0q-49,.184-98,.148l-27.5.027c-4.5,0-9-.015-13.5.027-1.516.013-3.032,0-4.548.01-1.508-.752-3.782-.377-5.385-.364-1.88.017-3.757.042-5.637.092-.865.026-1.733.055-2.6.076a3.685,3.685,0,0,1-2.053-.333,1.653,1.653,0,0,1-.487-.463c.346-4.477.358-8.954.358-13.448V587.844q0-28.735-.166-57.468c-.028-5.376-.034-10.755-.1-16.131-.038-3.157-.048-6.315-.135-9.47h0c.647-.737.484-1.857.518-2.784a32.17,32.17,0,0,1,.183-3.609c.095-.636.295-.92.937-1.026a10.914,10.914,0,0,1,1.822-.063c1.188.008,2.376.006,3.561.015q1.459.009,2.918,0c7.436.7,14.987.476,22.444.568q12.085.148,24.17.162l48.339.044q23.924.022,47.849,0l24.17,0c8.057,0,16.11-.187,24.169-.232,9.046-.051,18.082-.276,27.129-.266,8.934.013,17.927.331,26.845-.2,0,0,0,0,.007,0,.412.068.853,0,1.257.095a1.224,1.224,0,0,1,1.023,1.268c.1,1.272-.289,2.775-.046,4.075-.122,2.893-.085,5.808-.122,8.672-.069,4.837-.084,9.67-.092,14.507q-.029,14.505-.021,29.012c.008,19.342-.076,38.684.13,58.026q.089,8.057.173,16.118.041,4.129.1,8.259.032,2.015.065,4.03c.021,1.352.213,2.681.333,4.027a1.066,1.066,0,0,0-.116-.017c-8.132-.586-16.349-.343-24.5-.388q-12.254-.069-24.5-.091Q624.153,644.918,599.656,645.019Z" transform="translate(-423.777 -480.251)" fill="#250c03" fill-rule="evenodd"/>
        <path id="Path_10917" data-name="Path 10917" d="M732.632,865.919a13.457,13.457,0,0,0-6.558-.771c-2.2.28-4.692.938-5.963,2.884a.682.682,0,0,0,.027.8,7.623,7.623,0,0,0-1.337,6.838,9.21,9.21,0,0,0,8.663,6.182,11.556,11.556,0,0,0,9.643-6.042,6.563,6.563,0,0,0,.4-6.09c-.939-1.874-2.985-3.07-4.872-3.8Zm2.932,7.657h0c-1.7,6.153-10.9,9.044-14.655,3.038a6.6,6.6,0,0,1,.647-7.593c1.286-.39,2.47-1.028,3.8-1.327a11.1,11.1,0,0,1,4.47-.093C732.751,868.151,736.554,870.011,735.564,873.576Z" transform="translate(-586.669 -695.299)" fill="#250c03" fill-rule="evenodd"/>
        <path id="Path_10918" data-name="Path 10918" d="M416.682,901.566a16.756,16.756,0,0,0,3.719,2.711c.83.435,2.858,1.558,3.561.356.653-1.116-1.011-1.786-1.757-2.133a14.575,14.575,0,0,1-3.85-2.605C417.249,898.852,415.578,900.513,416.682,901.566Z" transform="translate(-411.234 -715.344)" fill="#250c03" fill-rule="evenodd"/>
        <path id="Path_10919" data-name="Path 10919" d="M460.565,886.83c-1.495-1.142-3.007-2.257-4.521-3.374-3.022-2.23-6.134-4.328-9.163-6.549-.84-.614-1.948.8-1.122,1.458,2.936,2.337,5.778,4.788,8.723,7.118,1.459,1.154,2.919,2.308,4.4,3.44,1.186.9,2.91,2.689,4.532,2.489a.735.735,0,0,0,.692-.91C463.871,888.9,461.744,887.731,460.565,886.83Z" transform="translate(-428.157 -702.103)" fill="#250c03" fill-rule="evenodd"/>
        <path id="Path_10920" data-name="Path 10920" d="M483.559,882.029c-2.822-2.074-5.764-3.982-8.733-5.835-1.072-.67-1.963.952-.975,1.664,2.822,2.034,5.57,4.159,8.316,6.29,2.586,2.007,5.073,4.546,8.242,5.583a.544.544,0,0,0,.608-.792C489.413,885.942,486.233,883.994,483.559,882.029Z" transform="translate(-444.386 -701.685)" fill="#250c03" fill-rule="evenodd"/>
        <path id="Path_10921" data-name="Path 10921" d="M514.231,884.259c-1.167-.943-2.369-1.856-3.567-2.759-2.388-1.8-4.854-3.5-7.244-5.29-.741-.559-1.716.695-1,1.291,2.3,1.912,4.521,3.921,6.829,5.829,1.12.924,2.249,1.838,3.392,2.731a7.432,7.432,0,0,0,3.561,1.91.627.627,0,0,0,.6-.79A7.28,7.28,0,0,0,514.231,884.259Z" transform="translate(-461.076 -701.705)" fill="#250c03" fill-rule="evenodd"/>
        <path id="Path_10922" data-name="Path 10922" d="M542.991,893.889a23.1,23.1,0,0,1-3.174-3.013c-1-1.135-2.664.532-1.657,1.659a23.721,23.721,0,0,0,3.17,2.959c.73.564,2.366,2.085,3.285,1.046C545.577,895.451,543.665,894.413,542.991,893.889Z" transform="translate(-481.79 -710.08)" fill="#250c03" fill-rule="evenodd"/>
        <path id="Path_10923" data-name="Path 10923" d="M565.994,896.962a10.376,10.376,0,0,0-2.18-1.125,11.071,11.071,0,0,1-2.083-1.365c-1.289-1.076-3.148.8-1.847,1.845a13.954,13.954,0,0,0,2.5,1.66,5.362,5.362,0,0,0,2.837.85C566.048,898.729,566.8,897.64,565.994,896.962Z" transform="translate(-494.326 -712.201)" fill="#250c03" fill-rule="evenodd"/>
        <path id="Path_10924" data-name="Path 10924" d="M576.549,1012.114a9.239,9.239,0,0,1-4.34-2.7c-.6-.728-1.809.217-1.305,1.009a7.7,7.7,0,0,0,5.374,3.7C577.5,1014.258,577.552,1012.488,576.549,1012.114Z" transform="translate(-500.91 -778.969)" fill="#250c03" fill-rule="evenodd"/>
        <path id="Path_10925" data-name="Path 10925" d="M591.775,1006.609c-1.194-.821-2.42-1.6-3.628-2.409-2.418-1.6-4.9-3.11-7.324-4.7-1.072-.7-2.013.977-.995,1.7,2.38,1.681,4.7,3.437,7.089,5.1,1.194.83,2.373,1.683,3.58,2.491,1.076.722,2.074,1.476,3.418,1.264a.6.6,0,0,0,.416-.733C594.045,1008.01,592.815,1007.326,591.775,1006.609Z" transform="translate(-505.908 -773.267)" fill="#250c03" fill-rule="evenodd"/>
        <path id="Path_10926" data-name="Path 10926" d="M623.625,1009.961a40.407,40.407,0,0,0-4.746-2.3q-2.362-1.181-4.6-2.586c-.945-.589-1.733.843-.859,1.47,1.481,1.062,3,2.064,4.572,2.988a17.955,17.955,0,0,0,4.829,2.323A1.044,1.044,0,0,0,623.625,1009.961Z" transform="translate(-525.446 -776.522)" fill="#250c03" fill-rule="evenodd"/>
        <path id="Path_10927" data-name="Path 10927" d="M646.647,1010.357c-1.333-.58-2.672-1.126-4.028-1.649-.735-.282-1.211.893-.533,1.262,1.331.724,2.671,1.411,4.029,2.076a8.734,8.734,0,0,0,3.856,1.313.51.51,0,0,0,.356-.857C649.412,1011.393,647.926,1010.915,646.647,1010.357Z" transform="translate(-542.117 -778.684)" fill="#250c03" fill-rule="evenodd"/>
        <path id="Path_10928" data-name="Path 10928" d="M677.031,1011.142c-1-.433-2.023-.821-3.037-1.226-1.293-.518-1.885,1.6-.579,2.1,1.661.627,3.86,1.91,5.671,1.571a.615.615,0,0,0,.369-.9A5.577,5.577,0,0,0,677.031,1011.142Z" transform="translate(-560.069 -779.364)" fill="#250c03" fill-rule="evenodd"/>
        <path id="Path_10929" data-name="Path 10929" d="M617.56,967.995a2.436,2.436,0,0,0-1.112-1.156,6.45,6.45,0,0,0-1.748-.886.983.983,0,0,0-.948,1.628,6.384,6.384,0,0,0,1.44,1.194,4.259,4.259,0,0,0,.769.453,2.931,2.931,0,0,0,.971.131c.647.063.969-.728.7-1.225C617.608,968.088,617.586,968.041,617.56,967.995Z" transform="translate(-525.718 -753.864)" fill="#250c03" fill-rule="evenodd"/>
        <path id="Path_10930" data-name="Path 10930" d="M630.631,962.124q-1.184-.894-2.4-1.75c-1.672-1.175-3.363-2.3-5.092-3.385-.664-.419-1.447.567-.849,1.1,1.527,1.354,3.073,2.664,4.665,3.94,1.262,1.015,2.969,2.88,4.707,2.788a.566.566,0,0,0,.539-.706A3.684,3.684,0,0,0,630.631,962.124Z" transform="translate(-530.691 -748.625)" fill="#250c03" fill-rule="evenodd"/>
        <path id="Path_10931" data-name="Path 10931" d="M651.767,960.657c-.9-.676-1.843-1.314-2.78-1.939-1.821-1.219-3.639-2.441-5.439-3.688-.682-.472-1.558.644-.9,1.158,1.727,1.343,3.435,2.708,5.141,4.077.794.638,1.607,1.255,2.418,1.872.764.579,1.489,1.211,2.483,1.026a.66.66,0,0,0,.487-.64C653.067,961.621,652.477,961.188,651.767,960.657Z" transform="translate(-542.498 -747.48)" fill="#250c03" fill-rule="evenodd"/>
        <path id="Path_10932" data-name="Path 10932" d="M677.218,965.646l-1.845-1.32c-.842-.6-1.647.792-.813,1.388q.875.625,1.748,1.251a2.721,2.721,0,0,0,1.765.657.381.381,0,0,0,.365-.479A2.77,2.77,0,0,0,677.218,965.646Z" transform="translate(-560.956 -752.857)" fill="#250c03" fill-rule="evenodd"/>
        <path id="Path_10933" data-name="Path 10933" d="M954.171,905.441a8.578,8.578,0,0,0-4.278-1.322c-1.023-.109-1.289,1.38-.5,1.849a12.678,12.678,0,0,0,1.908.889,5.126,5.126,0,0,0,2.052.568C954.258,907.392,955.006,906.111,954.171,905.441Z" transform="translate(-720.45 -717.986)" fill="#250c03" fill-rule="evenodd"/>
        <path id="Path_10934" data-name="Path 10934" d="M969.664,899.194c-1.752-.742-3.527-1.417-5.311-2.072-1.045-.383-1.75,1.3-.758,1.8,1.651.834,3.311,1.651,5,2.409.864.392,3.5,2,4.149.495C973.383,900.344,970.515,899.552,969.664,899.194Z" transform="translate(-728.686 -713.894)" fill="#250c03" fill-rule="evenodd"/>
        <path id="Path_10935" data-name="Path 10935" d="M996.867,896.439c-.87-.5-1.774-.948-2.662-1.408-1.843-.954-3.7-1.877-5.555-2.817-1.285-.648-2.413,1.239-1.135,1.946,1.87,1.036,3.734,2.089,5.619,3.1.937.5,1.875,1.051,2.842,1.494a2.713,2.713,0,0,0,2.4.3.719.719,0,0,0,.326-.8C998.541,897.349,997.61,896.86,996.867,896.439Z" transform="translate(-742.523 -711)" fill="#250c03" fill-rule="evenodd"/>
        <path id="Path_10936" data-name="Path 10936" d="M1024.556,892.653c-1.069-.638-2.147-1.266-3.222-1.9-2.15-1.261-4.348-2.44-6.509-3.681a.994.994,0,0,0-1,1.714c2.1,1.348,4.161,2.759,6.273,4.09,1,.627,2,1.26,3,1.882.922.573,2.087,1.533,3.219,1.121a.856.856,0,0,0,.575-1.011C1026.737,893.755,1025.429,893.175,1024.556,892.653Z" transform="translate(-757.852 -708.011)" fill="#250c03" fill-rule="evenodd"/>
        <path id="Path_10937" data-name="Path 10937" d="M1046.416,885.336c-.975-.763-1.963-1.508-2.948-2.253q-2.931-2.23-5.833-4.5c-1.3-1.022-3.144.813-1.832,1.832q2.963,2.305,5.875,4.666c.922.741,1.841,1.491,2.771,2.222a18.321,18.321,0,0,0,3.137,2.314,1.285,1.285,0,0,0,1.55-2.01A16.4,16.4,0,0,0,1046.416,885.336Z" transform="translate(-770.623 -702.988)" fill="#250c03" fill-rule="evenodd"/>
        <path id="Path_10938" data-name="Path 10938" d="M1059.036,877.051c.859.831,1.72,1.982,2.9,2.333a.781.781,0,0,0,.953-.953c-.353-1.176-1.5-2.032-2.337-2.889C1059.585,874.551,1058.041,876.092,1059.036,877.051Z" transform="translate(-784.185 -701.212)" fill="#250c03" fill-rule="evenodd"/>
      </g>
      <g id="Group_15888" data-name="Group 15888" transform="translate(82 42.788)">
        <path id="Path_10939" data-name="Path 10939" d="M743.147,657.776c1.588-4.355,6.629-8.24,11.38-7.876a13.5,13.5,0,0,1,4.082,1.15,18.105,18.105,0,0,1,3.376,1.737c1.993,1.354,4.019,3.477,4.208,6a.566.566,0,0,1-.352.554,9.457,9.457,0,0,1,.371,4.01,9.674,9.674,0,0,1-2.971,5.961,10.856,10.856,0,0,1-6.027,2.78c-2.615.323-5-.548-7.349-1.613a13.341,13.341,0,0,1-3.521-2.064,10.682,10.682,0,0,1-2.228-3.283c-1.173-2.35-1.907-4.777-.968-7.353Zm3.631,7.739h0a6.193,6.193,0,0,0,2.55,2.474,14.955,14.955,0,0,0,6.256,2.27,8.933,8.933,0,0,0,5.263-1.428,9.224,9.224,0,0,0,3.14-11.447.443.443,0,0,1,0-.415c-.069-.114-.139-.225-.215-.335a10.756,10.756,0,0,0-2.049-2.135,11.638,11.638,0,0,0-5.382-2.586c-2.175-.28-4.2-.5-6.124.8a14.444,14.444,0,0,0-4.164,4.365,6.109,6.109,0,0,0-.539,5.7A21.364,21.364,0,0,0,746.777,665.515Z" transform="translate(-682.73 -613.172)" fill="#250c03" fill-rule="evenodd"/>
        <path id="Path_10940" data-name="Path 10940" d="M603.173,610.554l4.854-1.579a17.01,17.01,0,0,1,4.467-1.257c.063-.143.129-.289.19-.429.291-.7.621-1.365.952-2.041a15.975,15.975,0,0,0,.981-1.95c-.118-.326-.318-.646-.459-.962-.6-1.346-1.221-2.719-1.727-4.1a3.312,3.312,0,0,1,.788-3.8,17.985,17.985,0,0,1,3.763-2.036q1.914-.944,3.85-1.843c1.291-.6,2.588-1.181,3.894-1.743a11.993,11.993,0,0,1,2.668-.958q.667-1.03,1.331-2.055,1.292-1.993,2.584-3.988c.857-1.323,1.683-3.159,3.491-3.237,1.384-.059,2.906.636,4.252.933,1.413.312,2.841.575,4.279.745a7.568,7.568,0,0,0,1.948.164,4.513,4.513,0,0,0,1.43-.752c.735-.457,1.427-.987,2.15-1.466a18.1,18.1,0,0,1,.569-3.5q.41-2.034.874-4.058t.977-4.033c.4-1.561.7-3.327,2.424-3.932a13.021,13.021,0,0,1,3.967-.286q2.139-.032,4.277,0,2.064.031,4.123.124a6.339,6.339,0,0,1,2.076.27,2.775,2.775,0,0,1,1.609,1.929,54.924,54.924,0,0,1,1.769,8.143,31.419,31.419,0,0,1,6.153,2.826c.417-.525.9-1,1.344-1.485q.991-1.08,2.013-2.135,2.095-2.164,4.288-4.229a1.959,1.959,0,0,1,2.7.019c3.819,3.286,9.257,4.134,12.551,8.141a4.4,4.4,0,0,1,1.217,3.677,30.319,30.319,0,0,1-1.009,3.986c-.378,1.264-.825,2.5-1.324,3.727a19.326,19.326,0,0,1-1.188,2.641,19,19,0,0,1,2.605,3.041,36.2,36.2,0,0,1,2.209,3.279c2.489-.225,4.978-.429,7.467-.627q2.2-.174,4.41-.349a7.765,7.765,0,0,1,2.384-.091c.841.219,1.284,1.03,1.759,1.689a46.4,46.4,0,0,1,6.736,13.78,1.95,1.95,0,0,1-1.347,2.337,38.85,38.85,0,0,0-7.261,3.437c-1.132.687-2.2,1.455-3.293,2.209a5.964,5.964,0,0,1-2.313,1.082c-.208.9-.448,1.79-.692,2.679l5.172,5.578a5.915,5.915,0,0,1,1.223,1.622,3.19,3.19,0,0,1-.143,2.615c-.555,1.3-1.175,2.571-1.782,3.843q-1.933,4.031-4.048,7.965a27.584,27.584,0,0,1-2.169,3.838,2.233,2.233,0,0,1-2.241.87,8.711,8.711,0,0,1-2.028-.926q-4.425-2.268-8.851-4.541a1.737,1.737,0,0,1-.847-1.038c-.328.067-.663.126-1,.179a35.227,35.227,0,0,0,1.792,11.936,1.94,1.94,0,0,1-1.357,2.354,94.877,94.877,0,0,1-17.331,1.927,5.947,5.947,0,0,1-2.133-.11,3.486,3.486,0,0,1-1.838-1.821q-1.125-1.908-2.106-3.886c-.678-1.375-1.323-2.771-1.87-4.2a21.253,21.253,0,0,1-.729-2.085,31.049,31.049,0,0,1-4.066-1.627,63.314,63.314,0,0,0-9.124,8.638,1.906,1.906,0,0,1-2.291.294c-.546-.389-1.089-.785-1.63-1.177a7.278,7.278,0,0,1-1.093.1c-.922.017-1.843,0-2.767-.015q-2.691-.04-5.383.01c-1.754.034-3.544.238-5.294.186-2.14-.068-2.883-2.157-3.519-3.864-.131-.356-.748-3-1.011-3.781-.116-.01-.267-.034-.328-.038l-1.323-.063a1.362,1.362,0,0,0-.139,0c-.2.35-.548.822-.632.973q-.616,1.081-1.232,2.162c-.5.874-.92,1.872-1.92,2.264-1.822.716-3.93-1.051-5.125-2.254-1.4-1.407-2.626-2.993-4.016-4.418a59.844,59.844,0,0,0-4.42-4.077,1.9,1.9,0,0,1-.293-2.281c1.057-1.721,2.091-3.468,3.211-5.151a19.592,19.592,0,0,1-1.438-1.748,7.692,7.692,0,0,1-1.2-2.083c-1.615.192-3.26.229-4.881.341a4.224,4.224,0,0,1-2.584-.352,4.909,4.909,0,0,1-1.5-1.922,48.972,48.972,0,0,1-3.723-8.438,18.292,18.292,0,0,1-1.232-4.462c-.13-2.142,1.814-2.717,3.471-3.256Zm104.784,34.592h0c.2.107.188.095-.046-.042a.12.12,0,0,1-.027,0l.073.038Zm-92.236-47.824h0c.006.023.034-.006.067-.061-.044.029-.069.051-.067.061ZM654.9,566.3h0a.037.037,0,0,1,.008-.009c-.08,0-.084,0-.008.009Zm58.856,64.307h0a.141.141,0,0,0-.067.16c.043-.1.069-.158.067-.16Zm-37.53,24.306h0l-.067-.039c-.141.049-.118.059.067.039Zm-22.416-5.2h0a58.35,58.35,0,0,1,6.471-6.166c.7-.573,1.413-1.127,2.137-1.67a5.576,5.576,0,0,1,1.18-.789,2.33,2.33,0,0,1,1.948.225,40.3,40.3,0,0,1,4.515,2.028,1.013,1.013,0,0,1,.37.169,4.256,4.256,0,0,1,.409.354,1.9,1.9,0,0,1,.385.43,10.669,10.669,0,0,1,1.2,2.177c.271.581.539,1.166.809,1.752a.607.607,0,0,1,.086-.092.69.69,0,0,1,.673-.182c1.5.565,2.9,1.441,4.347,2.133q2.233,1.074,4.515,2.042c.551.234.164,1.189-.4.982q-2.265-.828-4.486-1.763a33.054,33.054,0,0,1-4.157-1.883c.013.026.023.05.036.074q.73,1.529,1.539,3.017.417.776.855,1.546c.131.229.27.522.424.788.065,0,.13-.007.2-.009.388-.017.775-.034,1.16-.052.776-.036,1.548-.071,2.322-.114,1.5-.081,3-.175,4.492-.306a66.732,66.732,0,0,0,6.876-.933,38.035,38.035,0,0,1-1.264-12.612A1.964,1.964,0,0,1,691.88,639c1.6-.287,5.077-1.52,5.7.8.009.029.011.057.017.086a2.081,2.081,0,0,1,.383.151q2.6,1.33,5.2,2.664c.842.43,1.687.863,2.529,1.294q.525.271,1.049.538c.018-.034.038-.065.054-.1.285-.514.565-1.027.845-1.542q.837-1.541,1.645-3.1,1.579-3.044,3.05-6.144c.09-.19.87-1.836,1.23-2.624-.114-.128-.219-.284-.309-.383q-.582-.632-1.161-1.261-2.318-2.524-4.641-5.048a1.9,1.9,0,0,1-.487-1.811,58.118,58.118,0,0,1,2.1-5.686,1.552,1.552,0,0,1,1.8-.716c.068-.036.135-.072.206-.107a14.334,14.334,0,0,0,1.567-1.038c1.063-.76,2.157-1.474,3.285-2.131a42.753,42.753,0,0,1,5.682-2.748,43.866,43.866,0,0,0-5.667-10.988c-4.628.373-9.255.758-13.89,1.066a1.85,1.85,0,0,1-1.636-.944,43.223,43.223,0,0,0-2.4-4.119,30.108,30.108,0,0,1-2.676-3.894,1.541,1.541,0,0,1-.049-1.156,15.129,15.129,0,0,1,1.1-3.321c.43-1.192.817-2.394,1.137-3.618a28.56,28.56,0,0,0,.731-3.576c.055-.423.078-.438-.128-.724a8.027,8.027,0,0,0-1.065-1.11,23.763,23.763,0,0,0-5.615-3.382,35.658,35.658,0,0,1-4.645-2.634q-1.57,1.523-3.087,3.094-1.017,1.054-2.018,2.127a11.6,11.6,0,0,1-2.351,2.2,1.762,1.762,0,0,1-2.093-.289s0,0,0,0c-1.219-.438-2.4-1-3.613-1.459-1.386-.529-2.788-1-4.216-1.4a1.809,1.809,0,0,1-1.3-1.291q-.433-2.186-.916-4.361-.259-1.162-.549-2.314c-.13-.515-.36-1.1-.474-1.645l-1.015-.042q-1.07-.041-2.137-.067-2.29-.051-4.584-.029c-.712.008-1.426.019-2.138.038-.27.007-.636.074-.948.068a17.013,17.013,0,0,1-.522,1.843q-.3,1.19-.583,2.388-.531,2.246-1,4.5c-.307,1.5-.381,3.279-1.194,4.6a1.728,1.728,0,0,1-1.009.739,19.667,19.667,0,0,1-2,1.891c-1.2,1.042-2.352,1.933-4.014,1.921a30.939,30.939,0,0,1-4.586-.524,42.635,42.635,0,0,1-4.433-.962c-.074-.019-.333-.065-.581-.123-.364.581-1.059,1.508-1.161,1.664q-1.295,2-2.588,3.986t-2.586,3.986c-.4.619-.783,1.285-1.2,1.921.164.139.328.276.495.413,1,.821,2.026,1.6,2.978,2.474a31.558,31.558,0,0,1,2.573,2.685c.39.45.771.909,1.15,1.369a2.8,2.8,0,0,1,.849,2.47c0,.034-.013.07-.019.1.415,1.468.647,2.992,1.135,4.452a1.887,1.887,0,0,1-1.308,2.268,74.789,74.789,0,0,0-9.3,3.915,37.313,37.313,0,0,1,1.67,6.323,31.955,31.955,0,0,0,2.055,6.659c1.882-.507,3.784-.958,5.7-1.339,1.23-.245,2.46-.457,3.7-.617a8.144,8.144,0,0,1,3.759.114,5.332,5.332,0,0,1,2.365,1.19,19.963,19.963,0,0,0,2.761,1.564,1.877,1.877,0,0,1,.674,2.515,35.215,35.215,0,0,0-1.864,6.547c-.539,2.3-.99,4.652-1.632,6.925.131.085.263.171.4.257,1.017.661,2.021,1.342,3.024,2.026q2.375,1.621,4.736,3.26Zm-15.908-.067h0c.059.126.07.12.032-.015-.019-.01-.038-.024-.059-.034a.3.3,0,0,1,.027.048Zm-.783-.486h0a.608.608,0,0,1-.068-.041c-.126.051-.1.063.068.041Zm-4.732-4.008h0c-.007-.009-.013-.017-.017-.015s.006.006.017.015Zm-27.631-27.477h0a52.229,52.229,0,0,0,2.917,6.654c.13.25.261.5.394.75l.213.39c.45.059,1.343.206,1.5.227,1.447.181,2.913.293,4.345.56a.9.9,0,0,1,.27.094,1.163,1.163,0,0,1,.705.122,7.984,7.984,0,0,1,2.192,2.192,14.574,14.574,0,0,0,2.154,2.034,1.834,1.834,0,0,1,.655,2.432c-.908,1.723-1.93,3.387-2.951,5.048a58.221,58.221,0,0,1,4.368,4.2c.815.872,1.58,1.785,2.382,2.67a11.963,11.963,0,0,0,1.249,1.245c.1.084.2.161.307.232l.036-.061c.229-.4.461-.813.692-1.217.453-.8.876-1.63,1.371-2.4a2.94,2.94,0,0,1,2.655-1.466,21.912,21.912,0,0,1,2.883.179c2.062.29,3,1.968,3.367,3.845a17.522,17.522,0,0,0,.594,2.343,10.584,10.584,0,0,0,.427,1.071c.048.1.1.206.149.307.063-.005.122-.009.183-.009.308-.016.615-.029.923-.042q1.074-.044,2.152-.076,2-.054,4-.059.758,0,1.516,0c-.77-.573-1.538-1.15-2.3-1.74-.5-.383-1-.758-1.472-1.183a5.349,5.349,0,0,1-1.108-1.5,1.06,1.06,0,0,1,.465-1.493c.457-2.369,1.106-4.717,1.658-7.063a34.482,34.482,0,0,1,1.476-5.587c-.461-.318-.916-.646-1.361-.994a11.338,11.338,0,0,1-1.162-.99,13.054,13.054,0,0,1-2.221.554c-1.217.227-2.437.444-3.649.689q-3.576.717-7.076,1.733a1.932,1.932,0,0,1-2.15-.895,32.452,32.452,0,0,1-2.944-8.36c-.551-2.621-.941-5.351-2.239-7.732a1.936,1.936,0,0,1,.71-2.6,63.793,63.793,0,0,1,10.038-4.435,10.814,10.814,0,0,1-.213-3.075,4.727,4.727,0,0,1-.581-.615c-.409-.5-.821-1-1.244-1.487a30.128,30.128,0,0,0-2.586-2.673c-.952-.857-2.007-1.6-2.887-2.539-.133-.143-.266-.293-.394-.445a1.946,1.946,0,0,1-1.638-2.239,3.843,3.843,0,0,1,.207-.632,1.4,1.4,0,0,1-.023-.223c-.236.105-.472.213-.7.32q-1.937.9-3.85,1.84c-.3.146-2.266,1.066-3.083,1.5.026.082.047.16.056.187.249.68.556,1.35.834,2.02a11.047,11.047,0,0,1,1.251,3.892c.008,1.4-1.059,2.725-1.727,3.883a11.752,11.752,0,0,1-2.386,3.458,1.153,1.153,0,0,1-.116.131c-1.072,1.042-2.969,1.337-4.365,1.792q-1.971.644-3.944,1.286c-.648.21-1.295.423-1.944.634C604.039,615.492,604.379,616.6,604.761,617.683Z" transform="translate(-599.695 -562.369)" fill="#250c03" fill-rule="evenodd"/>
        <path id="Path_10941" data-name="Path 10941" d="M790.6,765.372c.838-.067,1.746.628,2.5.952,1,.428,2.026.794,3.062,1.121.581.185.351,1.091-.236.92-1.087-.318-2.159-.68-3.21-1.1-.8-.321-1.954-.592-2.43-1.348A.369.369,0,0,1,790.6,765.372Z" transform="translate(-710.318 -680.222)" fill="#250c03" fill-rule="evenodd"/>
        <path id="Path_10942" data-name="Path 10942" d="M800.94,763.533a.329.329,0,0,1,.2-.474,2.813,2.813,0,0,1,1.731.306c.687.244,1.373.484,2.059.726s.4,1.337-.284,1.093l-2.193-.783A2.759,2.759,0,0,1,800.94,763.533Z" transform="translate(-716.504 -678.851)" fill="#250c03" fill-rule="evenodd"/>
        <path id="Path_10943" data-name="Path 10943" d="M836.721,713.876c.55-.082,1.1-.164,1.649-.245.593-.088.852.815.246.916-.575.095-1.15.192-1.723.289-.442.072-1.074.31-1.415-.091a.326.326,0,0,1-.05-.37C835.628,713.908,836.294,713.939,836.721,713.876Z" transform="translate(-736.534 -650.183)" fill="#250c03" fill-rule="evenodd"/>
        <path id="Path_10944" data-name="Path 10944" d="M829.819,706.641a.426.426,0,0,1,0-.427c.276-.489.728-.524,1.247-.577.732-.076,1.468-.088,2.2-.141a40.919,40.919,0,0,0,4.341-.547c.852-.152,1.212,1.15.351,1.31-1.453.271-2.921.5-4.389.678C832.573,707.056,830.482,707.633,829.819,706.641Z" transform="translate(-733.264 -645.138)" fill="#250c03" fill-rule="evenodd"/>
        <path id="Path_10945" data-name="Path 10945" d="M835.342,694.657a28.023,28.023,0,0,0,5.109-.9.6.6,0,0,1,.312,1.163,27.726,27.726,0,0,1-4.73,1.061c-.689.089-3.74.733-3.9-.415C831.972,694.443,834.723,694.706,835.342,694.657Z" transform="translate(-734.636 -638.632)" fill="#250c03" fill-rule="evenodd"/>
        <path id="Path_10946" data-name="Path 10946" d="M841.951,682.272a6.355,6.355,0,0,1-2.307.019.394.394,0,0,1-.236-.564,2.087,2.087,0,0,1,1.78-.857c.9-.074,1.809-.034,2.708-.061a29.042,29.042,0,0,0,5.888-.758.482.482,0,0,1,.251.931,40.858,40.858,0,0,1-5.408,1.1C843.737,682.193,842.848,682.232,841.951,682.272Z" transform="translate(-738.836 -630.681)" fill="#250c03" fill-rule="evenodd"/>
        <path id="Path_10947" data-name="Path 10947" d="M853.449,671.044c-.8.156-1.613.265-2.427.366a3.94,3.94,0,0,1-2.48-.112.42.42,0,0,1-.084-.655,3.521,3.521,0,0,1,1.992-.531c.918-.09,1.83-.215,2.742-.341a37.635,37.635,0,0,0,5.227-1.068.536.536,0,0,1,.278,1.034C856.964,670.231,855.218,670.7,853.449,671.044Z" transform="translate(-744.046 -624.09)" fill="#250c03" fill-rule="evenodd"/>
        <path id="Path_10948" data-name="Path 10948" d="M687.37,705.633a80.557,80.557,0,0,1-8.318-.074q-2.041-.126-4.067-.388c-.99-.126-2.654-.3-3.167-1.295a.519.519,0,0,1,.313-.75,5.663,5.663,0,0,1,1.67.171c.541.055,1.078.118,1.619.192q2.028.281,4.066.487c2.615.259,5.244.385,7.874.394A.632.632,0,0,1,687.37,705.633Z" transform="translate(-641.534 -644.071)" fill="#250c03" fill-rule="evenodd"/>
        <path id="Path_10949" data-name="Path 10949" d="M695.992,696.676a19.7,19.7,0,0,1-3.585-.35c-.865-.168-2.51-.312-2.967-1.166a.416.416,0,0,1,.248-.594,1.889,1.889,0,0,1,1.35.166c.5.158,1.015.291,1.529.4a18.084,18.084,0,0,0,3.415.394A.573.573,0,0,1,695.992,696.676Z" transform="translate(-651.768 -639.073)" fill="#250c03" fill-rule="evenodd"/>
        <path id="Path_10950" data-name="Path 10950" d="M700.072,688.437c-.855-.143-1.7-.312-2.542-.522a2.712,2.712,0,0,1-1.748-.893.335.335,0,0,1,.2-.484,3.376,3.376,0,0,1,2.009.2c.792.19,1.592.346,2.4.474S700.87,688.567,700.072,688.437Z" transform="translate(-655.451 -634.399)" fill="#250c03" fill-rule="evenodd"/>
        <path id="Path_10951" data-name="Path 10951" d="M706.8,677.144c-1.044.112-2.614.314-3.3-.687a.411.411,0,0,1,.067-.5,2.229,2.229,0,0,1,1.476-.415,12.331,12.331,0,0,0,1.742-.086.85.85,0,0,1,.85.838A.863.863,0,0,1,706.8,677.144Z" transform="translate(-659.933 -628.021)" fill="#250c03" fill-rule="evenodd"/>
      </g>
      <path id="Path_10952" data-name="Path 10952" d="M671.344,589.632l-6.376,9.893c3.654,3.072,4.018,3.085,7.2,6.941a2.718,2.718,0,0,1,.83,2.573c.415,1.468.647,2.993,1.135,4.452a1.883,1.883,0,0,1-1.308,2.266,74.467,74.467,0,0,0-9.3,3.919c1.668,4.224,1.478,7.933,3.721,12.982l9.4-1.958c5.044-.653,4.906,1.047,8.884,2.868a1.877,1.877,0,0,1,.674,2.515c-1.371,3.039-2.451,9.775-3.5,13.473l8.158,5.543,8.609-7.836c1.2-.9,1.55-1.249,3.128-.562,1.617.7,4.735,1.658,5.679,2.978l2.014,3.929c.692-.914,2.98.836,5.107,1.86,1.487.718,3,1.4,4.515,2.042.551.234.164,1.189-.4.982l-8.642-3.645,2.854,5.425,15.046-1.414a38.09,38.09,0,0,1-1.264-12.612,1.964,1.964,0,0,1,1.422-1.866c1.489-.268,5.239-1.558,5.717.883l9.161,4.647,6.823-13.507-6.111-6.692a1.892,1.892,0,0,1-.484-1.811,57.347,57.347,0,0,1,2.1-5.684c.493-1.089,1.506-.558,2.009-.825l4.851-3.17a42.725,42.725,0,0,1,5.682-2.748,43.864,43.864,0,0,0-5.667-10.988c-4.628.373-9.255.758-13.89,1.066a1.85,1.85,0,0,1-1.636-.944,43.156,43.156,0,0,0-2.4-4.119c-3.2-4.823-3.553-3.037-1.63-8.371.429-1.19,2.4-7,1.739-7.918-2.076-2.851-7.787-4.664-11.325-7.126l-7.455,7.425a1.777,1.777,0,0,1-2.1-.293l-7.829-2.862a1.805,1.805,0,0,1-1.3-1.291l-1.463-6.676c-.131-.514-.362-1.1-.476-1.645l-9.874-.1c-.27.007-.638.074-.948.068l-1.106,4.23q-.531,2.245-.994,4.5c-.309,1.495-.383,3.277-1.2,4.593a1.728,1.728,0,0,1-1.009.739c-.56.356-3.144,3.832-6.016,3.812l-9.6-1.609c-.365.581-1.06,1.508-1.161,1.664Zm41.289,15.991a18.093,18.093,0,0,1,3.375,1.737c1.992,1.354,4.019,3.477,4.207,6a.56.56,0,0,1-.351.552,9.514,9.514,0,0,1,.371,4.012,9.67,9.67,0,0,1-2.971,5.961,10.855,10.855,0,0,1-6.027,2.78c-2.615.322-5-.548-7.349-1.613a13.344,13.344,0,0,1-3.521-2.064,10.717,10.717,0,0,1-2.228-3.283c-1.173-2.35-1.908-4.778-.969-7.353,1.588-4.355,6.629-8.24,11.38-7.876a13.513,13.513,0,0,1,4.083,1.151ZM674.7,627.651c2.62.259,5.246.385,7.876.394a.632.632,0,0,1,.009,1.263,80.505,80.505,0,0,1-8.318-.074q-2.041-.126-4.066-.387c-.99-.126-2.654-.3-3.167-1.3a.517.517,0,0,1,.314-.748,5.716,5.716,0,0,1,1.668.171l1.623.192q2.025.281,4.062.487ZM717.036,652.9c.841-.067,1.746.627,2.5.952,1,.428,2.025.794,3.062,1.123.581.182.352,1.089-.236.918-1.087-.318-2.158-.68-3.209-1.1-.8-.32-1.954-.59-2.43-1.348a.368.368,0,0,1,.312-.543Zm20.287-34.1a2.1,2.1,0,0,1,1.78-.857c.9-.073,1.809-.034,2.708-.061a29.206,29.206,0,0,0,5.888-.758.482.482,0,0,1,.251.931,40.487,40.487,0,0,1-5.408,1.1c-.891.116-1.778.154-2.675.191a6.3,6.3,0,0,1-2.307.021.393.393,0,0,1-.236-.564Zm-55.453-3.522a12.311,12.311,0,0,0,1.742-.087.85.85,0,0,1,.851.838.864.864,0,0,1-.84.849c-1.044.112-2.613.314-3.3-.687a.415.415,0,0,1,.069-.5,2.235,2.235,0,0,1,1.477-.415Zm-.179,5.29c.8.128.48,1.356-.318,1.225-.855-.141-1.7-.312-2.542-.522a2.713,2.713,0,0,1-1.748-.893.336.336,0,0,1,.2-.484,3.393,3.393,0,0,1,2.009.2c.792.192,1.592.348,2.4.477Zm-.725,3.645a.573.573,0,0,1,.007,1.145,19.7,19.7,0,0,1-3.583-.35c-.865-.168-2.512-.312-2.967-1.166a.416.416,0,0,1,.248-.594,1.89,1.89,0,0,1,1.35.166c.5.158,1.015.291,1.529.4a18.052,18.052,0,0,0,3.415.394Zm40.221,28.224a.329.329,0,0,1,.2-.474,2.8,2.8,0,0,1,1.731.307l2.059.724c.682.242.4,1.339-.284,1.093L722.7,653.3a2.757,2.757,0,0,1-1.512-.867ZM741.165,614.3a3.52,3.52,0,0,1,1.992-.535c.918-.088,1.828-.213,2.742-.337a37.915,37.915,0,0,0,5.227-1.07.536.536,0,0,1,.278,1.034c-1.733.492-3.479.962-5.25,1.305-.8.156-1.611.266-2.424.367a3.923,3.923,0,0,1-2.481-.112.417.417,0,0,1-.084-.652Zm-3.706,9.47a28.035,28.035,0,0,0,5.109-.9.6.6,0,0,1,.312,1.163,27.737,27.737,0,0,1-4.729,1.061c-.687.088-3.74.733-3.9-.415-.16-1.12,2.592-.857,3.209-.906Zm-4.151,5.477a.426.426,0,0,1,0-.427c.276-.489.729-.524,1.247-.577.732-.076,1.468-.088,2.2-.141a41.6,41.6,0,0,0,4.34-.545c.851-.154,1.211,1.148.35,1.308-1.453.271-2.922.5-4.389.678-1,.122-3.087.7-3.751-.295Zm3.633,2.19,1.649-.245c.593-.088.852.815.246.916l-1.723.288c-.442.072-1.074.31-1.415-.091a.326.326,0,0,1-.05-.37C735.845,631.471,736.51,631.5,736.941,631.439Z" transform="translate(-554.753 -524.958)" fill="#fff" fill-rule="evenodd"/>
    </g>
    <g id="Group_15890" data-name="Group 15890" transform="translate(454.946 270.017)">
      <line id="Line_39" data-name="Line 39" y2="19.175" transform="translate(9.588)" fill="none" stroke="#250c03" stroke-linecap="round" stroke-linejoin="round" stroke-miterlimit="22.926" stroke-width="2.835"/>
      <line id="Line_40" data-name="Line 40" x1="19.177" transform="translate(0 9.59)" fill="none" stroke="#250c03" stroke-linecap="round" stroke-linejoin="round" stroke-miterlimit="22.926" stroke-width="2.835"/>
    </g>
    <path id="Path_10953" data-name="Path 10953" d="M344.422,1027.384a12.766,12.766,0,0,0-2.352.046.1.1,0,0,0-.021.009.077.077,0,0,0-.023,0,20.223,20.223,0,0,1-2.342.038c-.047,0-1.045-.283-1.083.417-.042.817.956,1.125,1,1.142a5.255,5.255,0,0,0,2.329.257.084.084,0,0,0,.023,0,.032.032,0,0,0,.021,0,16.822,16.822,0,0,0,2.365-.343c.048-.009,1.07-.041,1.108-.773.04-.781-.983-.777-1.027-.785Zm-43.174-1.355c-25.491-.095-51.079.278-76.574.569-.236,0-.474.01-.709.021-.245,0-.491-.006-.735,0q-38.2.43-76.336.537c-1.525,0-34.563-.537-34.624,1.308-.07,2.148,33.083,2.767,34.575,2.8,25.392.64,51.033.525,76.439.24.244,0,.491-.01.735-.021.238.008.474.008.709,0,25.5-.291,51.066-.758,76.56-1.348,1.508-.034,34.82-.309,34.82-2.243,0-2.065-33.356-1.864-34.86-1.868Zm-193.446.755a20.971,20.971,0,0,0-3.847.079.074.074,0,0,0-.036.013.067.067,0,0,0-.035-.009,31.954,31.954,0,0,1-3.833.059c-.078,0-1.712-.455-1.771.687-.072,1.335,1.564,1.836,1.638,1.865a8.645,8.645,0,0,0,3.813.423.388.388,0,0,0,.038-.01.045.045,0,0,0,.033,0,28.1,28.1,0,0,0,3.871-.56c.076-.013,1.75-.067,1.811-1.265C109.55,1026.784,107.877,1026.8,107.8,1026.784Z" transform="translate(-98.278 -673.825)" fill="#250c03" fill-rule="evenodd"/>
    <path id="Path_10954" data-name="Path 10954" d="M957.281,1027.384a12.76,12.76,0,0,0-2.352.046.094.094,0,0,0-.021.009.075.075,0,0,0-.023,0,20.227,20.227,0,0,1-2.342.038c-.046,0-1.043-.283-1.082.417-.042.817.956,1.125,1,1.142a5.252,5.252,0,0,0,2.329.257.1.1,0,0,0,.026,0,.03.03,0,0,0,.021,0,16.8,16.8,0,0,0,2.363-.343c.047-.009,1.07-.041,1.108-.773.041-.781-.987-.777-1.029-.785Zm-43.172-1.355c-25.491-.095-51.079.278-76.576.569-.236,0-.472.01-.708.021-.244,0-.49-.006-.737,0q-38.192.43-76.334.537c-1.523,0-34.563-.537-34.624,1.308-.07,2.148,33.08,2.767,34.576,2.8,25.392.64,51.032.525,76.437.24.246,0,.493-.01.737-.021.236.008.471.008.709,0,25.5-.291,51.064-.758,76.557-1.348,1.51-.034,34.822-.309,34.822-2.243,0-2.065-33.354-1.864-34.859-1.868Zm-193.444.755a20.945,20.945,0,0,0-3.846.079.059.059,0,0,0-.036.013.081.081,0,0,0-.038-.009,31.951,31.951,0,0,1-3.832.059c-.078,0-1.71-.455-1.771.687-.071,1.335,1.567,1.836,1.641,1.865a8.633,8.633,0,0,0,3.811.423.253.253,0,0,0,.038-.01.05.05,0,0,0,.036,0,28.109,28.109,0,0,0,3.869-.56c.078-.013,1.752-.067,1.811-1.265C722.412,1026.784,720.738,1026.8,720.665,1026.784Z" transform="translate(-454.083 -673.825)" fill="#250c03" fill-rule="evenodd"/>
    <g id="Group_15892" data-name="Group 15892" transform="translate(294.586 222.064)">
      <path id="Path_10955" data-name="Path 10955" d="M938.99,750.707a2.393,2.393,0,0,1,1.276.96c.551.811,1.105,1.621,1.608,2.466a67.907,67.907,0,0,1,5.277,11.683,86.824,86.824,0,0,1,3.548,12.706,69,69,0,0,1,.857,23.653c1.373,2.395,2.744,4.8,4.3,7.075,3.252,4.768,7.084,9.1,10.451,13.791a56.314,56.314,0,0,1,4.5,7.224c.531,1.044,1.023,2.114,1.457,3.2a11.7,11.7,0,0,1,1.464,7.926,17.718,17.718,0,0,1-4.711,9.481,33.448,33.448,0,0,1-7.4,5.837,75.918,75.918,0,0,1-8.242,4.329,86.344,86.344,0,0,1-18.26,5.951,82.907,82.907,0,0,1-19.2,1.6c-.556-.015-1.11-.044-1.664-.08a7.442,7.442,0,0,1-3.883.258c-1.285-.112-2.565-.291-3.835-.51q-.616-.108-1.228-.227a1.613,1.613,0,0,1-.3,0,31.42,31.42,0,0,1-3.382-.556c-4.363-.926-8.647-2.174-12.925-3.416q-6.469-1.882-12.85-4.047a191.292,191.292,0,0,1-24.723-10.373,138.933,138.933,0,0,1-20.679-12.8,109,109,0,0,1-17.236-16,99.56,99.56,0,0,1-7.208-9.458,51.977,51.977,0,0,1-3.024-5.014c-.448-.869-.9-1.739-1.3-2.628-.418-.914-.637-1.874-.961-2.816a1.431,1.431,0,0,1,.461-1.635q-.072-.487-.139-.973a38.572,38.572,0,0,1-.326-8.289,25.172,25.172,0,0,1,1.664-7.286,20.875,20.875,0,0,1,1.708-3.4,7.823,7.823,0,0,1,2.352-2.708,64.675,64.675,0,0,1,8.194-26.117,65.985,65.985,0,0,1,27.993-26.479,79.726,79.726,0,0,1,39-8.173,70.091,70.091,0,0,1,19.653,3.66c7.16,2.483,14.181,5.559,20.221,10.206a63.69,63.69,0,0,1,13.972,15.242C936.713,746.836,937.9,748.748,938.99,750.707Z" transform="translate(-800.617 -715.776)" fill="#250c03" fill-rule="evenodd"/>
      <path id="Path_10956" data-name="Path 10956" d="M828.578,828.2c-.333-.3-.68-.583-1.025-.866a.77.77,0,0,0-1.133.142,40.729,40.729,0,0,1-2.081-6.779,1.776,1.776,0,0,0,.109-.788c-.254-3.047-.606-6.1-.6-9.156a52.236,52.236,0,0,1,.76-8.827,60.827,60.827,0,0,1,5.724-17.036A64.342,64.342,0,0,1,846,764.945c7.955-1.912,16.684.373,24.136,3.233A78.407,78.407,0,0,1,919.9,831.127a80.392,80.392,0,0,1-1.632,30.074c-.251,1.013-.482,2.027-.68,3.051-1.7.211-3.412.379-5.121.514-2.7.218-5.412.338-8.12.419-2.16.066-4.32.01-6.481.1q-1.422-.066-2.839-.157c-3.462-.238-6.915-.641-10.338-1.214a111.292,111.292,0,0,1-20.594-5.538,96.622,96.622,0,0,1-18.295-9.047,54.315,54.315,0,0,1-14.349-12.889,40.139,40.139,0,0,1-4.418-7.522c.156.156.312.31.476.461a2.1,2.1,0,0,0,1.272.733c.448.044.684-.443.617-.809A2.1,2.1,0,0,0,828.578,828.2Z" transform="translate(-814.102 -743.913)" fill="#fbaa3b" fill-rule="evenodd"/>
      <path id="Path_10957" data-name="Path 10957" d="M828.578,829.177c-.333-.3-.68-.583-1.025-.866a.77.77,0,0,0-1.133.142,40.731,40.731,0,0,1-2.081-6.779,1.776,1.776,0,0,0,.109-.788c-.254-3.047-.606-6.1-.6-9.156a52.233,52.233,0,0,1,.76-8.827,60.824,60.824,0,0,1,5.724-17.036A64.34,64.34,0,0,1,846,765.92s-28.612,63.512,8.7,89.388A89.468,89.468,0,0,1,845.8,850.3a54.315,54.315,0,0,1-14.349-12.889,40.143,40.143,0,0,1-4.418-7.522c.156.156.312.31.476.462a2.1,2.1,0,0,0,1.272.733c.448.044.684-.443.617-.81a2.1,2.1,0,0,0-.822-1.1Zm53.2,35.177-27.064-9.047c3.062,1.5,6.2,2.843,9.388,4.039A110.929,110.929,0,0,0,881.773,864.353Z" transform="translate(-814.102 -744.888)" fill="#f79239" fill-rule="evenodd"/>
      <path id="Path_10958" data-name="Path 10958" d="M813.975,888.923a29.087,29.087,0,0,1-.75-4.384c-.057-.565-.106-1.125-.143-1.689a22.647,22.647,0,0,0-.8,4.768,35.533,35.533,0,0,0,.351,7.312c.192,1.339.419,2.67.64,4.005a18.182,18.182,0,0,1,.286,2.163c0,.088.007.179.011.267.13.194.261.388.39.583,1.181,1.783,2.368,3.566,3.628,5.3a93.423,93.423,0,0,0,7.981,9.5c10.791,11.3,23.868,20.123,37.892,26.908a221.777,221.777,0,0,0,24.083,9.786q6.147,2.131,12.378,4.016c2.123.644,4.258,1.259,6.376,1.921.594.185,1.192.366,1.786.547.442.093.88.182,1.324.261a37.163,37.163,0,0,0,4.867.568c1.662.076,3.327.078,4.99.116s3.334.036,5,.007a84.877,84.877,0,0,0,34.07-7.669c4.991-2.318,10.348-5.045,14.014-9.253a12.937,12.937,0,0,0,3.1-6.49,9.154,9.154,0,0,0,.077-2.144c-.106-.223-.2-.45-.3-.678q-.449-1.071-.872-2.155a34.289,34.289,0,0,0-1.908-4c-2.72-4.921-6.33-9.285-9.72-13.747-1.757-2.314-3.467-4.668-4.991-7.145-.328-.533-.644-1.07-.948-1.617a40.572,40.572,0,0,1-11.893,18.812c-7.195,6.339-16.29,10.224-25.617,12.153a92.08,92.08,0,0,1-17.059,1.7c-.725.012-1.449.021-2.174.021a2.316,2.316,0,0,1-.914.278,58.932,58.932,0,0,1-6.355.419c-2.108-.023-4.212-.156-6.313-.333a117.294,117.294,0,0,1-12.559-1.748,112.739,112.739,0,0,1-21.248-6.368,94.623,94.623,0,0,1-19.14-10.266,50.943,50.943,0,0,1-14.6-15.482,37.834,37.834,0,0,1-4.049-9.643A27.629,27.629,0,0,1,813.975,888.923Z" transform="translate(-807.351 -812.773)" fill="#fbaa3b" fill-rule="evenodd"/>
      <path id="Path_10959" data-name="Path 10959" d="M813.975,888.923a29.087,29.087,0,0,1-.75-4.384c-.057-.565-.106-1.125-.143-1.689a22.647,22.647,0,0,0-.8,4.768,35.533,35.533,0,0,0,.351,7.312c.192,1.339.419,2.67.64,4.005a18.182,18.182,0,0,1,.286,2.163c0,.088.007.179.011.267.13.194.261.388.39.583,1.181,1.783,2.368,3.566,3.628,5.3a93.423,93.423,0,0,0,7.981,9.5c10.791,11.3,23.868,20.123,37.892,26.908a221.777,221.777,0,0,0,24.083,9.786q6.147,2.131,12.378,4.016c2.123.644,4.258,1.259,6.376,1.921.594.185,1.192.366,1.786.547.442.093.88.182,1.324.261a37.163,37.163,0,0,0,4.867.568c1.662.076,3.327.078,4.99.116s3.334.036,5,.007a84.877,84.877,0,0,0,34.07-7.669c4.991-2.318,10.348-5.045,14.014-9.253a12.937,12.937,0,0,0,3.1-6.49,9.154,9.154,0,0,0,.077-2.144c-50.46,29.587-79.566,3.919-79.566,3.919-1.062.083-2.121.135-3.184.123-2.108-.023-4.212-.156-6.313-.333a117.325,117.325,0,0,1-12.559-1.748,112.739,112.739,0,0,1-21.248-6.368,94.622,94.622,0,0,1-19.14-10.266,50.945,50.945,0,0,1-14.6-15.482,37.839,37.839,0,0,1-4.049-9.643A27.618,27.618,0,0,1,813.975,888.923Z" transform="translate(-807.351 -812.773)" fill="#f79239" fill-rule="evenodd"/>
      <path id="Path_10960" data-name="Path 10960" d="M948.054,742.646a.955.955,0,0,1-1.474.535c-1.111-.788-2.329-1.422-3.482-2.148s-2.325-1.453-3.519-2.125a56.794,56.794,0,0,0-13.484-5.367,55.231,55.231,0,0,0-7.125-1.337q-1.8-.221-3.606-.346c-.1-.006-.2-.013-.3-.017a71.334,71.334,0,0,0-21.575,8.213q-1.317.774-2.6,1.614a41.6,41.6,0,0,1,7.867.771,69.349,69.349,0,0,1,14.3,4.5A83.259,83.259,0,0,1,937,762.452a80.747,80.747,0,0,1,25.921,53.33,82.827,82.827,0,0,1-.2,15.9,79.229,79.229,0,0,1-1.263,7.858,48.167,48.167,0,0,1-1.405,5.4c2.289-.368,4.568-.831,6.813-1.413,7.93-2.051,15.644-5.709,21.559-11.464.893-2.815,1.794-5.631,2.43-8.516a71.579,71.579,0,0,0,1.54-10.46,64.642,64.642,0,0,0-16.525-48.095,115.574,115.574,0,0,0-12.33-11.182,1.31,1.31,0,0,1-.173-1.9A90.174,90.174,0,0,0,948.054,742.646Z" transform="translate(-853.026 -725.103)" fill="#fff" fill-rule="evenodd"/>
      <path id="Path_10961" data-name="Path 10961" d="M975.642,728.181a62.177,62.177,0,0,1,8.56,3.106,59.845,59.845,0,0,1,6.783,3.612,31.5,31.5,0,0,1,3.179,2.133c.973.773,1.871,1.632,2.81,2.447a.913.913,0,0,1,.3.471,91.185,91.185,0,0,1,15.633,9.446,1.393,1.393,0,0,1,1.461-.1c5.823,2.986,10.811,7.771,14.985,12.742a67.545,67.545,0,0,1,15.626,51.686,63.723,63.723,0,0,1-1.639,8.783,40.779,40.779,0,0,0,4.844-14.64,65.794,65.794,0,0,0-1.616-24.3A90.881,90.881,0,0,0,1041.145,768c-.049-.088-.1-.172-.148-.259-3.3-5.612-6.536-11.3-10.588-16.409a56.376,56.376,0,0,0-14.054-12.9,62.308,62.308,0,0,0-9.865-4.932,81.992,81.992,0,0,0-9.537-3.258,68.3,68.3,0,0,0-18.489-2.16C977.524,728.1,976.581,728.13,975.642,728.181Z" transform="translate(-902.23 -722.915)" fill="#fbaa3b" fill-rule="evenodd"/>
      <g id="Group_15891" data-name="Group 15891">
        <path id="Path_10962" data-name="Path 10962" d="M938.99,750.707a2.393,2.393,0,0,1,1.276.96c.551.811,1.105,1.621,1.608,2.466a67.907,67.907,0,0,1,5.277,11.683,86.824,86.824,0,0,1,3.548,12.706,69,69,0,0,1,.857,23.653c1.373,2.395,2.744,4.8,4.3,7.075,3.252,4.768,7.084,9.1,10.451,13.791a56.314,56.314,0,0,1,4.5,7.224c.531,1.044,1.023,2.114,1.457,3.2a11.7,11.7,0,0,1,1.464,7.926,17.718,17.718,0,0,1-4.711,9.481,33.448,33.448,0,0,1-7.4,5.837,75.918,75.918,0,0,1-8.242,4.329,86.344,86.344,0,0,1-18.26,5.951,82.907,82.907,0,0,1-19.2,1.6c-.556-.015-1.11-.044-1.664-.08a7.442,7.442,0,0,1-3.883.258c-1.285-.112-2.565-.291-3.835-.51q-.616-.108-1.228-.227a1.613,1.613,0,0,1-.3,0,31.42,31.42,0,0,1-3.382-.556c-4.363-.926-8.647-2.174-12.925-3.416q-6.469-1.882-12.85-4.047a191.292,191.292,0,0,1-24.723-10.373,138.933,138.933,0,0,1-20.679-12.8,109,109,0,0,1-17.236-16,99.56,99.56,0,0,1-7.208-9.458,51.977,51.977,0,0,1-3.024-5.014c-.448-.869-.9-1.739-1.3-2.628-.418-.914-.637-1.874-.961-2.816a1.431,1.431,0,0,1,.461-1.635q-.072-.487-.139-.973a38.572,38.572,0,0,1-.326-8.289,25.172,25.172,0,0,1,1.664-7.286,20.875,20.875,0,0,1,1.708-3.4,7.823,7.823,0,0,1,2.352-2.708,64.675,64.675,0,0,1,8.194-26.117,65.985,65.985,0,0,1,27.993-26.479,79.726,79.726,0,0,1,39-8.173,70.091,70.091,0,0,1,19.653,3.66c7.16,2.483,14.181,5.559,20.221,10.206a63.69,63.69,0,0,1,13.972,15.242c1.241,1.866,2.424,3.779,3.519,5.737Zm-64.961-29.665a62.165,62.165,0,0,1,8.56,3.106,59.883,59.883,0,0,1,6.783,3.612,31.559,31.559,0,0,1,3.179,2.133c.973.773,1.871,1.632,2.809,2.447a.964.964,0,0,1-1.188,1.514c-1.111-.788-2.329-1.422-3.483-2.148s-2.325-1.453-3.519-2.125a56.789,56.789,0,0,0-13.484-5.368,55.24,55.24,0,0,0-7.125-1.337q-1.8-.221-3.605-.346c-.1-.006-.2-.013-.3-.017a71.326,71.326,0,0,0-21.574,8.213q-1.318.774-2.6,1.614a41.625,41.625,0,0,1,7.868.77,69.338,69.338,0,0,1,14.3,4.5,83.271,83.271,0,0,1,23.937,15.515,80.745,80.745,0,0,1,25.921,53.331,82.8,82.8,0,0,1-.2,15.9,79.191,79.191,0,0,1-1.263,7.858,48.232,48.232,0,0,1-1.405,5.4c2.289-.368,4.568-.831,6.812-1.413,7.93-2.051,15.644-5.708,21.559-11.464.893-2.815,1.794-5.631,2.43-8.516a71.612,71.612,0,0,0,1.54-10.46,64.643,64.643,0,0,0-16.525-48.095,115.553,115.553,0,0,0-12.33-11.182c-1.312-1.091.191-3.062,1.632-2.325,5.823,2.986,10.811,7.771,14.985,12.742a67.544,67.544,0,0,1,15.626,51.686,63.719,63.719,0,0,1-1.639,8.783,40.781,40.781,0,0,0,4.844-14.64,65.81,65.81,0,0,0-1.616-24.3,90.908,90.908,0,0,0-5.427-15.564c-.049-.088-.1-.172-.148-.259-3.3-5.612-6.536-11.3-10.588-16.409a56.383,56.383,0,0,0-14.054-12.9,62.288,62.288,0,0,0-9.866-4.932,81.929,81.929,0,0,0-9.537-3.258,68.294,68.294,0,0,0-18.489-2.161c-.939.016-1.882.048-2.821.1Zm10.351,116.1c2.161-.086,4.321-.031,6.481-.1,2.708-.082,5.417-.2,8.12-.419q2.564-.2,5.121-.514c.2-1.023.429-2.038.68-3.051a80.4,80.4,0,0,0,1.632-30.074,79.042,79.042,0,0,0-49.761-62.949c-7.453-2.86-16.181-5.145-24.136-3.232a64.339,64.339,0,0,0-15.676,19.947,60.808,60.808,0,0,0-5.724,17.036,52.267,52.267,0,0,0-.76,8.827c0,3.06.349,6.109.6,9.156a1.769,1.769,0,0,1-.109.788,40.647,40.647,0,0,0,7.113,15.737,54.314,54.314,0,0,0,14.349,12.889,96.631,96.631,0,0,0,18.295,9.047,111.269,111.269,0,0,0,20.594,5.538c3.422.573,6.875.975,10.337,1.214.947.06,1.892.111,2.839.157ZM807.24,791.926a29.073,29.073,0,0,1-.75-4.384c-.057-.565-.106-1.125-.143-1.689a22.652,22.652,0,0,0-.8,4.768,35.533,35.533,0,0,0,.351,7.312c.192,1.339.419,2.67.64,4.005a18.172,18.172,0,0,1,.286,2.163c0,.088.007.178.011.267.13.194.261.388.39.583,1.182,1.783,2.368,3.566,3.628,5.3a93.377,93.377,0,0,0,7.981,9.5c10.79,11.3,23.868,20.123,37.892,26.908a221.826,221.826,0,0,0,24.083,9.786q6.147,2.131,12.378,4.016c2.123.644,4.258,1.259,6.376,1.92.594.185,1.192.366,1.786.547.442.093.88.182,1.324.261a37.173,37.173,0,0,0,4.867.568c1.662.076,3.327.078,4.99.116s3.334.036,5,.007A84.88,84.88,0,0,0,951.6,856.2c4.991-2.318,10.348-5.045,14.015-9.253a12.939,12.939,0,0,0,3.095-6.49,9.148,9.148,0,0,0,.076-2.144c-.106-.223-.2-.45-.3-.678q-.449-1.071-.872-2.155a34.293,34.293,0,0,0-1.908-4c-2.72-4.921-6.33-9.285-9.72-13.747-1.756-2.314-3.466-4.668-4.991-7.145-.328-.533-.644-1.07-.948-1.617a40.573,40.573,0,0,1-11.894,18.812c-7.2,6.339-16.29,10.224-25.617,12.153a92.075,92.075,0,0,1-17.059,1.7c-.724.012-1.448.021-2.173.021a2.318,2.318,0,0,1-.914.278,58.9,58.9,0,0,1-6.355.419c-2.108-.023-4.212-.156-6.313-.333a117.24,117.24,0,0,1-12.559-1.747,112.726,112.726,0,0,1-21.248-6.369,94.61,94.61,0,0,1-19.14-10.266,50.944,50.944,0,0,1-14.6-15.482,37.831,37.831,0,0,1-4.049-9.643A27.634,27.634,0,0,1,807.24,791.926Z" transform="translate(-800.617 -715.776)" fill="#250c03" fill-rule="evenodd"/>
        <path id="Path_10963" data-name="Path 10963" d="M1045.522,767.547c.653.3,1.23-.644.573-.981a6.756,6.756,0,0,1-1.706-1.222,7.889,7.889,0,0,0-1.408-1.36.381.381,0,0,0-.571.324C1042.5,765.818,1044.285,766.974,1045.522,767.547Z" transform="translate(-940.993 -743.735)" fill="#250c03" fill-rule="evenodd"/>
        <path id="Path_10964" data-name="Path 10964" d="M1012.8,1051.713l-1.712-1.38c-.625-.5-1.518.377-.89.888q.9.73,1.791,1.455c.474.385.987.994,1.655.8a.376.376,0,0,0,.268-.354C1013.959,1052.455,1013.258,1052.086,1012.8,1051.713Z" transform="translate(-922.168 -909.921)" fill="#250c03" fill-rule="evenodd"/>
        <path id="Path_10965" data-name="Path 10965" d="M1029.886,1054.678c-.739-.585-1.489-1.152-2.268-1.685a28.25,28.25,0,0,0-5.008-2.8c-.742-.307-1.095.822-.514,1.226,1.561,1.087,3.174,2.1,4.709,3.225.765.56,1.5,1.171,2.27,1.723.463.328,1.529,1.008,1.925.223C1031.367,1055.87,1030.36,1055.056,1029.886,1054.678Z" transform="translate(-929.032 -909.896)" fill="#250c03" fill-rule="evenodd"/>
        <path id="Path_10966" data-name="Path 10966" d="M1050.354,1055.217a32.55,32.55,0,0,0-2.851-1.733,26.924,26.924,0,0,0-6.08-2.6c-.733-.191-1.253.9-.533,1.259,1.912.948,3.871,1.79,5.724,2.856.893.511,1.756,1.066,2.615,1.63.676.443,1.836,1.543,2.687,1.217a.562.562,0,0,0,.387-.51C1052.388,1056.412,1051.012,1055.678,1050.354,1055.217Z" transform="translate(-939.911 -910.317)" fill="#250c03" fill-rule="evenodd"/>
        <path id="Path_10967" data-name="Path 10967" d="M1071.888,1052.968a13.18,13.18,0,0,0-3.615-1.514c-.815-.186-1.432,1.019-.6,1.419,1.12.539,2.241,1.007,3.314,1.634.954.552,1.952,1.476,3.077,1.583a.514.514,0,0,0,.491-.645C1074.224,1054.3,1072.857,1053.53,1071.888,1052.968Z" transform="translate(-955.43 -910.648)" fill="#250c03" fill-rule="evenodd"/>
        <path id="Path_10968" data-name="Path 10968" d="M1092.723,1050.263c-1.234-.651-2.43-1.365-3.6-2.13-1.015-.668-1.954.958-.948,1.623,1.2.792,2.435,1.531,3.707,2.2,1.04.548,2.573,1.546,3.793,1.148a.484.484,0,0,0,.282-.7C1095.424,1051.3,1093.747,1050.8,1092.723,1050.263Z" transform="translate(-967.315 -908.638)" fill="#250c03" fill-rule="evenodd"/>
        <path id="Path_10969" data-name="Path 10969" d="M1112.641,1048.5a6.75,6.75,0,0,0-3.029-.61.933.933,0,0,0,0,1.865,5.027,5.027,0,0,1,2.241.539,4.181,4.181,0,0,0,2.041.792.512.512,0,0,0,.5-.5C1114.478,1049.6,1113.421,1048.857,1112.641,1048.5Z" transform="translate(-979.486 -908.588)" fill="#250c03" fill-rule="evenodd"/>
        <path id="Path_10970" data-name="Path 10970" d="M1128.694,1044.4a.879.879,0,0,0-.889,1.516,16.635,16.635,0,0,0,3.5,1.815.784.784,0,0,0,.758-1.3A16.487,16.487,0,0,0,1128.694,1044.4Z" transform="translate(-990.321 -906.492)" fill="#250c03" fill-rule="evenodd"/>
        <path id="Path_10971" data-name="Path 10971" d="M1144.13,1040.118l-1.564-.531a1.12,1.12,0,0,0-1.365.776,1.137,1.137,0,0,0,.775,1.365q.726.268,1.453.541a2.37,2.37,0,0,0,1.634.236.991.991,0,0,0,.586-1.442A2.473,2.473,0,0,0,1144.13,1040.118Z" transform="translate(-998.325 -903.741)" fill="#250c03" fill-rule="evenodd"/>
        <path id="Path_10972" data-name="Path 10972" d="M831.957,915.277c-.333-.3-.68-.583-1.025-.866-.721-.591-1.716.346-1.045,1.04.329.341.657.678,1,1a2.1,2.1,0,0,0,1.272.733c.446.044.684-.443.617-.809A2.1,2.1,0,0,0,831.957,915.277Z" transform="translate(-817.481 -830.988)" fill="#250c03" fill-rule="evenodd"/>
        <path id="Path_10973" data-name="Path 10973" d="M831.606,903.191a9.327,9.327,0,0,0-1.813-1.359c-.647-.318-1.527.365-1.064,1.063a9.622,9.622,0,0,0,1.641,1.714A6.072,6.072,0,0,0,832.263,906c.716.265,1.237-.624.929-1.208A5.939,5.939,0,0,0,831.606,903.191Z" transform="translate(-816.863 -823.747)" fill="#250c03" fill-rule="evenodd"/>
        <path id="Path_10974" data-name="Path 10974" d="M829.379,891.3c.6.617,1.059,1.428,1.878,1.752a.756.756,0,0,0,.95-.725,4.078,4.078,0,0,0-1.554-2.3,6.247,6.247,0,0,0-2.323-1.561c-.51-.165-1.07.492-.733.953A18.564,18.564,0,0,0,829.379,891.3Z" transform="translate(-816.221 -816.02)" fill="#250c03" fill-rule="evenodd"/>
        <path id="Path_10975" data-name="Path 10975" d="M828.651,877.027c.592.632,1.112,1.539,1.914,1.908a.8.8,0,0,0,1.162-.9,5.053,5.053,0,0,0-1.617-2.293,8.778,8.778,0,0,0-2.19-1.828c-.661-.337-1.663.408-1.128,1.128A23.817,23.817,0,0,0,828.651,877.027Z" transform="translate(-815.725 -807.539)" fill="#250c03" fill-rule="evenodd"/>
        <path id="Path_10976" data-name="Path 10976" d="M826.275,862.843c.731.626,1.455,1.255,2.173,1.9a16.776,16.776,0,0,0,2.22,1.849c1.063.661,2.1-.8,1.3-1.681a16.154,16.154,0,0,0-2.131-1.74q-1.093-.846-2.171-1.712C826.7,860.68,825.307,862.009,826.275,862.843Z" transform="translate(-815.323 -800.216)" fill="#250c03" fill-rule="evenodd"/>
        <path id="Path_10977" data-name="Path 10977" d="M828.017,851.2c.716.606,1.426,1.225,2.148,1.823.61.505,1.3,1.1,2.139.868a.453.453,0,0,0,.328-.43c.039-.87-.724-1.413-1.347-1.889-.745-.568-1.5-1.126-2.251-1.691S827.295,850.582,828.017,851.2Z" transform="translate(-816.378 -793.548)" fill="#250c03" fill-rule="evenodd"/>
        <path id="Path_10978" data-name="Path 10978" d="M834.457,837.732a7.151,7.151,0,0,0,2.1,1.289c.516.156,1.1-.5.747-.975a3.776,3.776,0,0,0-.979-.939c-.36-.244-.723-.487-1.08-.729a.791.791,0,0,0-1.073.282A.8.8,0,0,0,834.457,837.732Z" transform="translate(-820.038 -785.729)" fill="#250c03" fill-rule="evenodd"/>
        <path id="Path_10979" data-name="Path 10979" d="M837.232,823.6c.3.247.584.508.9.723a1.622,1.622,0,0,0,1.176.275.647.647,0,0,0,.471-.617c0-.034-.016-.148-.026-.216,0,.043,0,.011-.015-.1a.41.41,0,0,0-.057-.211,2.211,2.211,0,0,0-.379-.568,8.739,8.739,0,0,0-.686-.674.98.98,0,1,0-1.386,1.387Z" transform="translate(-821.71 -777.408)" fill="#250c03" fill-rule="evenodd"/>
        <path id="Path_10980" data-name="Path 10980" d="M843.632,826.243v-.016C843.623,826.174,843.626,826.2,843.632,826.243Z" transform="translate(-825.587 -779.882)" fill="#250c03" fill-rule="evenodd"/>
      </g>
    </g>
  </g>
</svg>
