<svg xmlns="http://www.w3.org/2000/svg" width="20.764" height="25.976" viewBox="0 0 20.764 25.976">
  <g id="noun-delete-1020814" transform="translate(0 0)">
    <path id="Path_10983" data-name="Path 10983" d="M164.8,59.963h.016a.752.752,0,0,0,.736-.768l-.3-14.371a.752.752,0,0,0-.751-.736h-.016a.752.752,0,0,0-.736.768l.3,14.371A.752.752,0,0,0,164.8,59.963Zm4.4,0a.752.752,0,0,0,.751-.736l.3-14.371a.752.752,0,0,0-.736-.768H169.5l-.621.328-.13.408-.3,14.371a.752.752,0,0,0,.736.768Zm5.975-15.875a.755.755,0,0,0-.778.725l-.6,16.911a.924.924,0,0,1-.922.924H161.252a.932.932,0,0,1-.925-.951l-.6-16.884a.752.752,0,1,0-1.5.053l.6,16.858a2.431,2.431,0,0,0,2.428,2.428h11.624a2.423,2.423,0,0,0,2.426-2.4l.6-16.884a.751.751,0,0,0-.724-.778Zm1.514-3.008H172.11V38.928a.752.752,0,0,0-.752-.752h-8.59a.752.752,0,0,0-.752.752V41.08h-4.585a.752.752,0,0,0,0,1.5h19.26a.752.752,0,1,0,0-1.5Zm-6.086,0H163.52v-1.4h7.086Z" transform="translate(-156.68 -38.176)" fill="red"/>
  </g>
</svg>
