<svg id="Group_11" data-name="Group 11" xmlns="http://www.w3.org/2000/svg" width="20.764" height="20.764" viewBox="0 0 20.764 20.764">
  <path id="Path_23" data-name="Path 23" d="M0,0H20.764V20.764H0Z" fill="none"/>
  <path id="Path_24" data-name="Path 24" d="M3,15.51v2.63a.428.428,0,0,0,.433.433h2.63a.406.406,0,0,0,.3-.13L15.813,9,12.569,5.76,3.13,15.2A.425.425,0,0,0,3,15.51ZM18.322,6.495a.862.862,0,0,0,0-1.22L16.3,3.251a.862.862,0,0,0-1.22,0L13.494,4.834l3.244,3.244,1.583-1.583Z" transform="translate(-0.405 -0.404)"/>
</svg>
