<svg xmlns="http://www.w3.org/2000/svg" width="20.764" height="20.412" viewBox="0 0 20.764 20.412">
  <g id="noun-edit-4084235" transform="translate(0 0)">
    <path id="Path_10984" data-name="Path 10984" d="M399.14,343.568l4.728-4.728,2.066,2.066-4.728,4.728Z" transform="translate(-386.84 -326.337)"/>
    <path id="Path_10985" data-name="Path 10985" d="M530.14,297.337l1.285-1.285,2.066,2.066-1.285,1.285Z" transform="translate(-512.727 -285.219)"/>
    <path id="Path_10986" data-name="Path 10986" d="M371.129,470.017l-.563,2.63,2.63-.564.166-.166-2.066-2.066Z" transform="translate(-359.381 -452.235)"/>
    <path id="Path_10987" data-name="Path 10987" d="M90.379,38.4H87.585A3.364,3.364,0,0,1,84,35.322V21.587a3.364,3.364,0,0,1,3.585-3.077H99.962a3.364,3.364,0,0,1,3.585,3.077V24.8a1.047,1.047,0,1,1-2.093,0V21.587c0-.465-.612-.984-1.491-.984H87.585c-.878,0-1.491.518-1.491.984V35.322c0,.465.612.984,1.491.984h2.794a1.047,1.047,0,0,1,0,2.094Z" transform="translate(-84 -18.51)"/>
    <path id="Path_10988" data-name="Path 10988" d="M0,2.093.06,0,9.219.262l-.06,2.093Z" transform="matrix(0.999, -0.035, 0.035, 0.999, 4.643, 5.919)"/>
    <path id="Path_10989" data-name="Path 10989" d="M204.69,306.82h6.542v2.094H204.69Z" transform="translate(-199.979 -295.567)"/>
  </g>
</svg>
