<svg xmlns="http://www.w3.org/2000/svg" width="23.948" height="15.932" viewBox="0 0 23.948 15.932">
  <path id="Path_10990" data-name="Path 10990" d="M121.4,119.545a22.377,22.377,0,0,0-4.861-3.719l2.949-2.258a.795.795,0,0,0-.983-1.249l-3.586,2.736a13.747,13.747,0,0,0-5.791-1.063c-6.615.266-11.024,5.366-11.21,5.579a.773.773,0,0,0,0,1.036,18.109,18.109,0,0,0,4.888,3.8l-2.9,2.231a.775.775,0,0,0-.133,1.116.8.8,0,0,0,1.116.159l3.56-2.736a14.511,14.511,0,0,0,4.7,1.036h.558c4.064,0,8-1.859,11.715-5.552a.765.765,0,0,0,.239-.558.749.749,0,0,0-.266-.558Zm-21.757.558c1.275-1.249,4.861-4.3,9.59-4.516a12.245,12.245,0,0,1,4.224.611l-1.78,1.381a3.511,3.511,0,0,0-1.992-.664A3.2,3.2,0,0,0,106.5,120.1a2.771,2.771,0,0,0,.266,1.249l-2.55,1.966a16.832,16.832,0,0,1-4.569-3.214Zm12.167,0a2.131,2.131,0,0,1-2.125,2.125,2.056,2.056,0,0,1-1.062-.292l3.108-2.417a2.218,2.218,0,0,1,.08.584Zm-4.25,0a2.131,2.131,0,0,1,2.125-2.125,2.055,2.055,0,0,1,1.063.292l-3.108,2.417a2.218,2.218,0,0,1-.08-.584Zm1.647,4.516a11.885,11.885,0,0,1-3.294-.611l1.806-1.381a3.135,3.135,0,0,0,1.966.664,3.2,3.2,0,0,0,3.188-3.188,2.771,2.771,0,0,0-.266-1.249l2.524-1.939A19.286,19.286,0,0,1,119.7,120.1c-3.4,3.135-6.907,4.649-10.493,4.516Z" transform="translate(-97.718 -112.14)"/>
</svg>
