<svg xmlns="http://www.w3.org/2000/svg" width="20.764" height="12.458" viewBox="0 0 20.764 12.458">
  <path id="Path_22" data-name="Path 22" d="M3.538,6A1.038,1.038,0,1,0,4.576,7.038,1.038,1.038,0,0,0,3.538,6ZM7.691,8.076H22.225a1.038,1.038,0,0,0,0-2.076H7.691a1.038,1.038,0,1,0,0,2.076Zm0,3.115a1.038,1.038,0,1,0,1.038,1.038A1.038,1.038,0,0,0,7.691,11.191Zm4.153,5.191a1.038,1.038,0,1,0,1.038,1.038A1.038,1.038,0,0,0,11.844,16.382Zm10.382-5.191H11.844a1.038,1.038,0,1,0,0,2.076H22.225a1.038,1.038,0,0,0,0-2.076Zm0,5.191H16a1.038,1.038,0,1,0,0,2.076h6.229a1.038,1.038,0,0,0,0-2.076Z" transform="translate(-2.5 -6)"/>
</svg>
