<svg xmlns="http://www.w3.org/2000/svg" width="38.672" height="24.079" viewBox="0 0 38.672 24.079">
  <path id="noun-live-3264193" d="M74.812,105.657a1.209,1.209,0,0,0-1.017.508,19.338,19.338,0,0,0,.009,23.062,1.209,1.209,0,1,0,1.935-1.447,16.928,16.928,0,0,1,0-20.178,1.209,1.209,0,0,0-.928-1.945Zm28.979,0a1.209,1.209,0,0,0-.887,1.945,16.909,16.909,0,0,1-.009,20.178,1.212,1.212,0,1,0,1.945,1.447,19.317,19.317,0,0,0,0-23.062,1.209,1.209,0,0,0-.928-.508c-.04,0-.08,0-.12,0Zm-24.938,3.559a1.251,1.251,0,0,0-.142.01,1.209,1.209,0,0,0-.866.536,13.928,13.928,0,0,0,0,15.868h0a1.209,1.209,0,1,0,1.99-1.374,11.517,11.517,0,0,1,0-13.12h0a1.209,1.209,0,0,0-.982-1.919Zm20.918.01h0a1.208,1.208,0,0,0-.963,1.909,11.55,11.55,0,0,1,0,13.12,1.209,1.209,0,0,0,1.99,1.374,13.972,13.972,0,0,0,0-15.868h0a1.209,1.209,0,0,0-1.027-.536Zm-13.989.817a1.17,1.17,0,0,0-.123,0,1.208,1.208,0,0,0-1.107,1.2v12.89a1.208,1.208,0,0,0,1.909.982l9.134-6.441a1.209,1.209,0,0,0,0-1.971l-9.134-6.451a1.208,1.208,0,0,0-.68-.217Z" transform="translate(-69.986 -105.656)"/>
</svg>
