<svg xmlns="http://www.w3.org/2000/svg" width="39.308" height="33.384" viewBox="0 0 39.308 33.384">
  <g id="noun_google_map_1620813" data-name="noun_google map_1620813" transform="translate(-4439 1715.638)">
    <g id="Group_15982" data-name="Group 15982" transform="translate(5206 -1349.232)">
      <path id="Path_10787" data-name="Path 10787" d="M19.655,7.257a4.276,4.276,0,1,0,4.276,4.277,4.277,4.277,0,0,0-4.276-4.277M27.576,27.5V20.111h7.248L35.8,27.5Zm0-15.291a8.485,8.485,0,0,0,.094-.846h5.995l.9,6.8H27.576ZM11.811,9.143h-8.1L0,37.152H39.308L35.6,9.143H27.5c-.848-3.571-4.4-5.375-7.844-5.375S12.659,5.573,11.811,9.143ZM11.733,12.2v5.95H4.744l.9-6.8h6A8.258,8.258,0,0,0,11.733,12.2Zm0,7.906V27.5H3.506l.978-7.384h7.248ZM27.576,34.936V29.451h8.485l.726,5.486Zm-7.922-10.6a63.551,63.551,0,0,0,5.967-7.512V27.5H13.687V16.826A63.769,63.769,0,0,0,19.654,24.337Zm-7.921,5.113v5.486H2.521l.726-5.486Zm1.954,5.486V29.451H25.621v5.486Zm5.967-13.972c-2.035-2.373-5.554-6.443-5.8-9.606-.287-3.542,2.6-5.374,5.8-5.374,3.281,0,6.078,1.9,5.8,5.375C25.2,14.537,21.7,18.58,19.654,20.965Zm0-7.2a2.232,2.232,0,1,1,2.232-2.232A2.232,2.232,0,0,1,19.655,13.765Z" transform="translate(-767 -370.174)" fill="#3f3e8d" fill-rule="evenodd"/>
    </g>
  </g>
</svg>
