<svg xmlns="http://www.w3.org/2000/svg"  width="291.399" height="146.554" viewBox="0 0 291.399 146.554">
  <g id="Group_16100" data-name="Group 16100" transform="translate(-814.301 -438.392)">
    <path id="Path_11005" data-name="Path 11005" d="M1584.842,628.29l-4.565,12.541a18.847,18.847,0,0,1-24.156,11.265l-.078-.027,8.289-22.775a4.984,4.984,0,0,0-2.561-6.286,4.882,4.882,0,0,0-6.554,2.8l-9.622,26.434a15.2,15.2,0,1,1-28.573-10.4l12.9-35.456a4.986,4.986,0,0,0-2.446-6.231,4.878,4.878,0,0,0-6.67,2.749l-18.192,49.981a18.846,18.846,0,0,1-24.156,11.263l-.178-.064a18.848,18.848,0,0,1-11.265-24.156l20.686-56.833c6.463-17.755,26.4-27.319,44.075-20.638a33.723,33.723,0,0,1,3.234,1.418,33.258,33.258,0,0,1,8.26,5.842,33.8,33.8,0,0,1,5.493,6.851,7.63,7.63,0,0,1,.63,6.565l-13.037,35.818a4.88,4.88,0,0,0,9.013,3.719,3.215,3.215,0,0,0,.157-.381c.042-.133.089-.262.127-.4l12.364-33.973a4.6,4.6,0,0,1,5.856-2.793l.043.017a34.536,34.536,0,0,1,5.222,2.406,34.421,34.421,0,0,1,15.7,40.748" transform="translate(-567.053 -121.926)" fill="#e87722"/>
    <path id="Path_11006" data-name="Path 11006" d="M766.232,1608.89c0-4.942-2.691-7.486-6.758-7.486-4.109,0-6.8,2.544-6.8,7.486v12.3a2.765,2.765,0,1,1-5.53,0v-12.3c0-4.942-2.691-7.486-6.758-7.486-4.109,0-6.8,2.544-6.8,7.486v12.3a2.765,2.765,0,0,1-2.765,2.765h-.048a2.764,2.764,0,0,1-2.764-2.765v-21.4a2.789,2.789,0,1,1,5.578,0v.293a10.267,10.267,0,0,1,7.975-3.524c4.257,0,7.828,1.811,9.687,5.333a10.555,10.555,0,0,1,9.393-5.333c6.312,0,11.111,3.963,11.111,11.5v13.136a2.764,2.764,0,1,1-5.528,0Z" transform="translate(86.291 -1039.469)" fill="#e87722"/>
    <path id="Path_11007" data-name="Path 11007" d="M1191,1608.89c0-4.942-2.691-7.486-6.751-7.486-4.11,0-6.8,2.544-6.8,7.486v12.3a2.765,2.765,0,0,1-2.764,2.765h-.048a2.764,2.764,0,0,1-2.764-2.765v-21.4a2.789,2.789,0,1,1,5.578,0v.293a10.368,10.368,0,0,1,8.018-3.524c6.312,0,11.056,3.963,11.056,11.5v13.136a2.764,2.764,0,0,1-5.528,0Z" transform="translate(-306.725 -1039.469)" fill="#e87722"/>
    <path id="Path_11008" data-name="Path 11008" d="M1445.532,1596.56a11.482,11.482,0,0,1,9.345,4.353v-1.1a2.813,2.813,0,1,1,5.626,0v21.329a2.813,2.813,0,1,1-5.626,0v-1.2a11.615,11.615,0,0,1-9.443,4.453c-7,0-12.623-5.727-12.623-14.041s5.626-13.8,12.722-13.8m1.174,4.844c-4.159,0-8.172,3.131-8.172,8.954s4.009,9.2,8.172,9.2c4.208,0,8.171-3.277,8.171-9.1,0-5.774-3.963-9.049-8.171-9.049" transform="translate(-537.775 -1039.469)" fill="#e87722"/>
    <path id="Path_11009" data-name="Path 11009" d="M1741.439,1519.653h0a2.789,2.789,0,0,1,2.789,2.789v30.628a2.789,2.789,0,1,1-5.578,0v-30.631a2.789,2.789,0,0,1,2.789-2.789" transform="translate(-808.582 -971.367)" fill="#e87722"/>
    <path id="Path_11010" data-name="Path 11010" d="M1851.415,1622.476c-7.265,2.644-14.518-.548-17.411-8.5s.4-14.931,7.891-17.659c7.216-2.628,14.146.527,16.856,7.975a17.124,17.124,0,0,1,.754,2.641l-19.359,7.045a7.416,7.416,0,0,0,9.661,4.086,6.529,6.529,0,0,0,4.688-5.716l5.655-2.062c.181,4.932-2.531,9.929-8.738,12.188m-12.761-12.746,14.023-5.1c-1.514-3.874-5.5-5.235-9.407-3.813-3.541,1.29-5.521,4.717-4.616,8.918" transform="translate(-892.09 -1038.441)" fill="#e87722"/>
    <path id="Path_11011" data-name="Path 11011" d="M2111.371,1596.56a11.48,11.48,0,0,1,9.345,4.353v-1.1a2.813,2.813,0,0,1,5.627,0v21.331a2.813,2.813,0,0,1-5.627,0v-1.2a11.611,11.611,0,0,1-9.442,4.452c-7,0-12.623-5.727-12.623-14.041s5.626-13.8,12.715-13.8m1.174,4.844c-4.158,0-8.17,3.13-8.17,8.954s4.009,9.2,8.17,9.2c4.208,0,8.171-3.277,8.171-9.1,0-5.775-3.962-9.049-8.171-9.049" transform="translate(-1127.344 -1039.469)" fill="#e87722"/>
    <path id="Path_11012" data-name="Path 11012" d="M2400.99,1528.478a12.415,12.415,0,0,1,9.3,4.208v-10.2a2.814,2.814,0,1,1,5.628,0v30.584a2.814,2.814,0,1,1-5.628,0v-1.253a11.174,11.174,0,0,1-9.345,4.5c-7.094,0-12.72-5.727-12.72-14.041s5.626-13.8,12.77-13.8m1.125,4.844c-4.158,0-8.17,3.131-8.17,8.954s4.01,9.2,8.17,9.2c4.208,0,8.171-3.277,8.171-9.1,0-5.774-3.962-9.049-8.171-9.049" transform="translate(-1383.744 -971.387)" fill="#e87722"/>
    <path id="Path_11013" data-name="Path 11013" d="M2690.561,1528.486a12.418,12.418,0,0,1,9.3,4.208v-10.2a2.813,2.813,0,1,1,5.626,0v30.584a2.813,2.813,0,1,1-5.626,0v-1.249a11.177,11.177,0,0,1-9.345,4.5c-7.1,0-12.722-5.727-12.722-14.041s5.626-13.8,12.771-13.8m1.125,4.844c-4.159,0-8.171,3.131-8.171,8.954s4.009,9.2,8.171,9.2c4.208,0,8.171-3.277,8.171-9.1,0-5.774-3.963-9.049-8.171-9.049" transform="translate(-1640.145 -971.395)" fill="#e87722"/>
    <path id="Path_11014" data-name="Path 11014" d="M2977.188,1510.761a3.529,3.529,0,1,1,1.033,2.538,3.551,3.551,0,0,1-1.033-2.538m2.01,7.143h3.026a1.275,1.275,0,0,1,1.276,1.275v22.895a2.789,2.789,0,1,1-5.578,0v-22.895a1.275,1.275,0,0,1,1.275-1.275" transform="translate(-1905.246 -960.371)" fill="#e87722"/>
    <path id="Path_11015" data-name="Path 11015" d="M3098.183,1624.4c-4.434,0-7.968-1.8-9.827-4.51a2.686,2.686,0,0,1,2.219-4.2h.134a2.668,2.668,0,0,1,2.4,1.394,5.373,5.373,0,0,0,4.979,2.617c3.229,0,4.94-1.369,4.94-3.228,0-5.285-15.656-2.252-15.656-12.134,0-4.306,4.009-7.78,10.373-7.78,4.414,0,7.731,1.708,9.346,4.682a2.711,2.711,0,0,1-2.406,3.979h-.06a2.807,2.807,0,0,1-2.478-1.61c-.734-1.444-2.322-2.353-4.6-2.353-2.978,0-4.55,1.223-4.55,3.033,0,5.431,15.215,2.4,15.509,12.134,0,4.55-3.962,7.975-10.323,7.975" transform="translate(-2002.809 -1039.469)" fill="#e87722"/>
  </g>
</svg>
