<svg xmlns="http://www.w3.org/2000/svg" width="8.903" height="11.129" viewBox="0 0 8.903 11.129">
  <path id="Path_16" data-name="Path 16" d="M8.452,2A4.452,4.452,0,0,0,4,6.452c0,3,3.923,6.4,4.09,6.544a.556.556,0,0,0,.723,0c.195-.145,4.09-3.539,4.09-6.544A4.452,4.452,0,0,0,8.452,2Zm0,9.821C7.266,10.708,5.113,8.31,5.113,6.452a3.339,3.339,0,1,1,6.677,0C11.79,8.31,9.637,10.714,8.452,11.821Zm0-7.6a2.226,2.226,0,1,0,2.226,2.226A2.226,2.226,0,0,0,8.452,4.226Zm0,3.339A1.113,1.113,0,1,1,9.564,6.452,1.113,1.113,0,0,1,8.452,7.564Z" transform="translate(-4 -2)"/>
</svg>
