<svg xmlns="http://www.w3.org/2000/svg" width="345.75" height="345.639" viewBox="0 0 345.75 345.639">
  <g id="noun-profile-888930" transform="translate(-176.391 -106.396)">
    <path id="Path_11067" data-name="Path 11067" d="M408.35,212.13a59.023,59.023,0,1,1-59.023-59.023A59.031,59.031,0,0,1,408.35,212.13Zm113.79,67.086c0,95.312-77.5,172.82-172.82,172.82s-172.93-77.5-172.93-172.82S254.007,106.4,349.21,106.4,522.14,183.9,522.14,279.216Zm-334.54,0a161.141,161.141,0,0,0,30.688,94.641,141.329,141.329,0,0,1,262.42-.672,160.774,160.774,0,0,0,30.238-93.969c0-89.152-72.465-161.62-161.62-161.62s-161.72,72.465-161.72,161.62Z"/>
  </g>
</svg>
