<svg xmlns="http://www.w3.org/2000/svg" width="22.729" height="24.65" viewBox="0 0 22.729 24.65">
  <g id="noun-seat-1058955" transform="translate(-167.441 -82.319)">
    <path id="Path_11076" data-name="Path 11076" d="M489.3,250.88h-1.4a.7.7,0,0,0-.7.7v7.646a.7.7,0,0,0,.7.7h1.4a.7.7,0,0,0,.7-.7v-7.646a.7.7,0,0,0-.7-.7Z" transform="translate(-299.825 -158.052)"/>
    <path id="Path_11077" data-name="Path 11077" d="M168.7,250.88a.7.7,0,0,0-.7.7v7.646a.7.7,0,0,0,.7.7h1.4a.7.7,0,0,0,.7-.7v-7.646a.7.7,0,0,0-.7-.7Z" transform="translate(-0.525 -158.052)"/>
    <path id="Path_11078" data-name="Path 11078" d="M249.023,85.112a2.8,2.8,0,0,0-2.793-2.793h-8.8a2.8,2.8,0,0,0-2.793,2.793V97.4a.7.7,0,0,0,.7.7H248.29a.7.7,0,0,0,.7-.7V85.112Z" transform="translate(-63.007)"/>
    <path id="Path_11079" data-name="Path 11079" d="M189.472,418.88H168.139a.7.7,0,0,0-.7.7v2.269a.7.7,0,0,0,.7.7h21.333a.7.7,0,0,0,.7-.7v-2.269A.7.7,0,0,0,189.472,418.88Z" transform="translate(0 -315.577)"/>
    <path id="Path_11080" data-name="Path 11080" d="M248.328,357.84H235.339a.7.7,0,0,0-.7.7v.978a.7.7,0,0,0,.7.7h12.953a.7.7,0,0,0,.7-.7v-.978a.651.651,0,0,0-.663-.7Z" transform="translate(-63.01 -258.343)"/>
  </g>
</svg>
