<svg xmlns="http://www.w3.org/2000/svg" width="36.92" height="25.858" viewBox="0 0 36.92 25.858">
  <g id="noun-seen-2611434" transform="translate(-116.658 -116.573)">
    <path id="Path_11074" data-name="Path 11074" d="M310.718,237.024a3.692,3.692,0,1,1-3.692-3.692,3.692,3.692,0,0,1,3.692,3.692" transform="translate(-171.908 -107.522)"/>
    <path id="Path_11075" data-name="Path 11075" d="M153.43,128.8a19.826,19.826,0,0,0-36.624,0,1.735,1.735,0,0,0,0,1.4,19.826,19.826,0,0,0,36.624,0A1.735,1.735,0,0,0,153.43,128.8Zm-18.311,8.085a7.384,7.384,0,1,1,5.221-2.163A7.384,7.384,0,0,1,135.118,136.885Z"/>
  </g>
</svg>
