<svg xmlns="http://www.w3.org/2000/svg" xmlns:xlink="http://www.w3.org/1999/xlink" width="1445.22" height="763.977" viewBox="0 0 1445.22 763.977">
  <defs>
    <filter id="Path_12" x="0" y="0" width="1445.22" height="763.977" filterUnits="userSpaceOnUse">
      <feOffset dy="8" input="SourceAlpha"/>
      <feGaussianBlur stdDeviation="8" result="blur"/>
      <feFlood flood-opacity="0.161"/>
      <feComposite operator="in" in2="blur"/>
      <feComposite in="SourceGraphic"/>
    </filter>
  </defs>
  <g id="Ticket" transform="translate(-2451.879 902.629) rotate(180)">
    <g transform="matrix(-1, 0, 0, -1, -2451.88, 902.63)" filter="url(#Path_12)">
      <path id="Path_12-2" data-name="Path 12" d="M1396.939,367.572c16.209-7.5,26.18-21.287,26.182-36.2V152.529c0-23.133-23.589-41.881-52.684-41.877h-357.09v69.8c0,23.128-23.585,41.877-52.679,41.877s-52.679-18.749-52.679-41.877v-69.8H82.581c-29.1,0-52.685,18.752-52.679,41.881V331.375c0,14.9,9.969,28.691,26.177,36.194,44.88,20.228,72.613,58.075,72.608,99.087S100.949,545.5,56.067,565.726c-16.208,7.5-26.174,21.292-26.165,36.2V780.752c0,23.133,23.589,41.881,52.684,41.877h825.4v-69.8c0-23.128,23.585-41.877,52.679-41.877s52.679,18.749,52.679,41.877v69.8h357.094c29.1,0,52.685-18.752,52.68-41.881V601.928c0-14.9-9.969-28.691-26.177-36.194-44.875-20.228-72.607-58.071-72.608-99.08s27.731-78.855,72.605-99.084Zm-383.591,241c0,23.128-23.586,41.877-52.68,41.877s-52.68-18.749-52.68-41.877v-69.8c0-23.128,23.585-41.877,52.679-41.877s52.68,18.749,52.68,41.877Zm0-214.066c0,23.128-23.586,41.877-52.68,41.877s-52.68-18.749-52.68-41.877v-69.8c0-23.128,23.585-41.877,52.679-41.877s52.68,18.749,52.68,41.877Z" transform="translate(1449.12 840.63) rotate(180)" fill="#fff" stroke="#3f3e8d" stroke-width="4" opacity="0.8"/>
    </g>
  </g>
</svg>
